<svg width="12" height="7" viewBox="0 0 12 7" fill="none" xmlns="http://www.w3.org/2000/svg">
<path d="M2.11351 0.998693C1.95867 0.843855 1.77287 0.766436 1.55609 0.766436C1.33932 0.766436 1.15351 0.843855 0.998676 0.998693C0.843838 1.15353 0.766418 1.3374 0.766418 1.5503C0.766418 1.76321 0.843838 1.94708 0.998676 2.10191L5.46963 6.47996C5.62446 6.6348 5.81027 6.71222 6.02704 6.71222C6.24382 6.71222 6.42962 6.6348 6.58446 6.47996L11.0554 2.10191C11.2102 1.94708 11.2877 1.76321 11.2877 1.5503C11.2877 1.3374 11.2102 1.15353 11.0554 0.998693C10.9006 0.843855 10.7128 0.766436 10.4922 0.766436C10.2715 0.766436 10.0838 0.843855 9.92896 0.998693L6.02704 4.58707L2.11351 0.998693Z" fill="#A1A1A1"/>
</svg>
