<svg width="24" height="24" viewBox="0 0 24 24" fill="none" xmlns="http://www.w3.org/2000/svg">
<path d="M14.7135 8.34709C14.8684 8.19225 14.9458 8.00645 14.9458 7.78967C14.9458 7.5729 14.8684 7.3871 14.7135 7.23226C14.5587 7.07742 14.3748 7 14.1619 7C13.949 7 13.7651 7.07742 13.6103 7.23226L9.23226 11.7032C9.07742 11.858 9 12.0439 9 12.2606C9 12.4774 9.07742 12.6632 9.23226 12.818L13.6103 17.289C13.7651 17.4438 13.949 17.5212 14.1619 17.5212C14.3748 17.5213 14.5587 17.4438 14.7135 17.289C14.8684 17.1342 14.9458 16.9464 14.9458 16.7258C14.9458 16.5051 14.8684 16.3174 14.7135 16.1625L11.1252 12.2606L14.7135 8.34709Z" fill="#A1A1A1"/>
</svg>
