<svg width="24" height="24" viewBox="0 0 24 24" fill="none" xmlns="http://www.w3.org/2000/svg">
<path fill-rule="evenodd" clip-rule="evenodd" d="M10.7376 3.25C9.96361 3.25 9.31861 3.841 9.25061 4.612C9.10911 6.22293 9.07336 7.8414 9.14361 9.457L8.89061 9.475L7.40061 9.583C7.18301 9.5989 6.97326 9.67103 6.79191 9.79233C6.61055 9.91363 6.4638 10.08 6.36603 10.275C6.26825 10.47 6.2228 10.6871 6.23412 10.905C6.24544 11.1229 6.31315 11.3341 6.43061 11.518C7.5279 13.2331 8.94053 14.7244 10.5936 15.913L11.1896 16.342C11.4258 16.5113 11.709 16.6024 11.9996 16.6024C12.2902 16.6024 12.5735 16.5113 12.8096 16.342L13.4056 15.913C15.0603 14.7263 16.4733 13.2346 17.5686 11.518C17.6861 11.3341 17.7538 11.1229 17.7651 10.905C17.7764 10.6871 17.731 10.47 17.6332 10.275C17.5354 10.08 17.3887 9.91363 17.2073 9.79233C17.026 9.67103 16.8162 9.5989 16.5986 9.583L15.1086 9.475L14.8556 9.457C14.9256 7.842 14.8896 6.223 14.7486 4.612C14.7165 4.23994 14.5459 3.89348 14.2705 3.64124C13.9951 3.389 13.6351 3.24937 13.2616 3.25H10.7376ZM10.6816 10.115C10.5676 8.32763 10.5887 6.5342 10.7446 4.75H13.2546C13.4109 6.53418 13.4323 8.3276 13.3186 10.115C13.3124 10.2141 13.3259 10.3134 13.3584 10.4073C13.3909 10.5011 13.4416 10.5875 13.5078 10.6616C13.5739 10.7356 13.6541 10.7958 13.7437 10.8386C13.8333 10.8814 13.9305 10.906 14.0296 10.911C14.3536 10.927 14.6769 10.947 14.9996 10.971L16.0806 11.05C15.1197 12.4634 13.9182 13.6972 12.5306 14.695L12.0006 15.076L11.4686 14.695C10.0811 13.6972 8.87948 12.4634 7.91861 11.05L8.99961 10.97C9.32294 10.9467 9.64628 10.927 9.96961 10.911C10.0689 10.9062 10.1662 10.8816 10.2558 10.8389C10.3455 10.7961 10.4258 10.736 10.4921 10.6619C10.5583 10.5878 10.6092 10.5014 10.6417 10.4075C10.6743 10.3136 10.6878 10.2142 10.6816 10.115Z" fill="#E2001A"/>
<path d="M5.75 17C5.75 16.8011 5.67098 16.6103 5.53033 16.4697C5.38968 16.329 5.19891 16.25 5 16.25C4.80109 16.25 4.61032 16.329 4.46967 16.4697C4.32902 16.6103 4.25 16.8011 4.25 17V19C4.25 19.966 5.034 20.75 6 20.75H18C18.4641 20.75 18.9092 20.5656 19.2374 20.2374C19.5656 19.9092 19.75 19.4641 19.75 19V17C19.75 16.8011 19.671 16.6103 19.5303 16.4697C19.3897 16.329 19.1989 16.25 19 16.25C18.8011 16.25 18.6103 16.329 18.4697 16.4697C18.329 16.6103 18.25 16.8011 18.25 17V19C18.25 19.0663 18.2237 19.1299 18.1768 19.1768C18.1299 19.2237 18.0663 19.25 18 19.25H6C5.9337 19.25 5.87011 19.2237 5.82322 19.1768C5.77634 19.1299 5.75 19.0663 5.75 19V17Z" fill="#E2001A"/>
</svg>
