<svg width="34" height="34" viewBox="0 0 34 34" fill="none" xmlns="http://www.w3.org/2000/svg">
<path d="M31.437 29.5799L29.049 9.72922C28.9917 9.24929 28.8043 8.79417 28.507 8.41308C28.2097 8.03199 27.8139 7.73942 27.3623 7.56703L21.6317 5.36819L20.8614 3.05141C20.8226 2.94768 20.754 2.85775 20.6642 2.79299C20.5744 2.72822 20.4674 2.69151 20.3567 2.6875H13.4664C13.3656 2.69003 13.2673 2.72007 13.1823 2.77438C13.0973 2.82868 13.0287 2.90519 12.984 2.99562L11.8997 5.34375C10.7003 5.71455 9.52114 6.14775 8.36694 6.64159C6.89378 7.36728 5.70644 7.70037 4.94409 9.03753L2.60234 13.4533C2.35868 13.9134 2.23103 14.426 2.23047 14.9466V21.8375C2.23101 22.326 2.34331 22.8079 2.55878 23.2463L6.32109 30.8825C6.38775 31.018 6.48253 31.1378 6.59912 31.2338C6.71571 31.3298 6.85142 31.3998 6.9972 31.4392C7.14299 31.4786 7.29551 31.4865 7.44458 31.4624C7.59365 31.4382 7.73586 31.3825 7.86172 31.299L10.1445 29.7855C10.9191 30.4613 12.992 32.0104 15.5898 31.8637C15.6992 31.8575 15.8039 31.8176 15.8897 31.7495C15.9754 31.6814 16.0381 31.5884 16.069 31.4834L16.8223 28.9328L17.8997 31.5466C17.9399 31.6438 18.008 31.7269 18.0955 31.7854C18.183 31.8438 18.2859 31.875 18.3911 31.8749C20.2748 31.8656 22.0787 31.1131 23.4107 29.7811C24.7427 28.4491 25.4952 26.6452 25.5045 24.7615V24.6467L26.9017 30.7492C26.9356 30.8929 26.9989 31.0281 27.0876 31.1461C27.1763 31.2642 27.2885 31.3626 27.4171 31.4352C27.5457 31.5078 27.688 31.5529 27.8349 31.5678C27.9818 31.5827 28.1302 31.5669 28.2707 31.5216L30.7145 30.7141C30.9468 30.6369 31.1455 30.482 31.2771 30.2756C31.4086 30.0691 31.4651 29.8231 31.437 29.5799ZM20.6351 5.739L18.9935 9.06356L17.5326 7.93094L20.1756 4.35828L20.6351 5.739ZM18.3752 5.00428H15.3662L14.5066 3.75053H19.3027L18.3752 5.00428ZM17.5889 6.06678L16.8133 7.11547L16.0945 6.06678H17.5889ZM13.5695 4.26266L16.0589 7.89534L14.4848 8.9775L12.9516 5.60034L13.5695 4.26266ZM7.27416 30.414L3.51238 22.7762C3.3687 22.4839 3.29383 22.1626 3.2935 21.8369V14.9466C3.29383 14.5993 3.379 14.2574 3.54159 13.9505L5.88334 9.53638C6.36253 8.67469 7.14984 8.44413 8.04819 7.9575V19.4261L7.29541 16.7295C7.25571 16.5959 7.16509 16.4832 7.04309 16.4158C6.92109 16.3484 6.77748 16.3317 6.64324 16.3692C6.50899 16.4067 6.39486 16.4954 6.32546 16.6163C6.25605 16.7372 6.23693 16.8805 6.27222 17.0153L9.00231 26.7967L7.03988 27.8645C6.97859 27.8978 6.92447 27.9429 6.88061 27.9972C6.83674 28.0515 6.804 28.1138 6.78424 28.1808C6.76449 28.2477 6.7581 28.3178 6.76546 28.3872C6.77281 28.4566 6.79376 28.5239 6.82711 28.5851C6.86046 28.6464 6.90555 28.7005 6.95981 28.7444C7.01408 28.7883 7.07645 28.821 7.14336 28.8408C7.21028 28.8605 7.28044 28.8669 7.34982 28.8596C7.41921 28.8522 7.48646 28.8313 7.54775 28.7979L9.29556 27.847L9.58456 28.8829L7.27416 30.414ZM15.16 30.8108C12.8985 30.7726 11.0907 29.2208 10.672 28.8308L9.11016 23.2341V7.48256C10.1028 7.07066 11.1135 6.7039 12.1393 6.38341L13.7793 9.99484C13.8118 10.0652 13.8592 10.1276 13.9183 10.1778C13.9773 10.2279 14.0465 10.2647 14.1211 10.2855C14.1958 10.3062 14.274 10.3105 14.3505 10.298C14.427 10.2856 14.4998 10.2566 14.564 10.2132L16.2879 9.02797L16.2082 27.2605L15.16 30.8108ZM22.6693 29.0402C21.6229 30.0925 20.224 30.7204 18.7422 30.8028L17.2707 27.2344L17.3504 9.13422L18.8575 10.3019C18.92 10.3496 18.9922 10.383 19.069 10.3995C19.1459 10.4161 19.2254 10.4155 19.302 10.3978C19.3786 10.3801 19.4503 10.3457 19.512 10.2971C19.5738 10.2485 19.624 10.1868 19.6592 10.1165L21.4707 6.44556L24.442 7.58509V24.7615C24.444 25.5564 24.2884 26.3437 23.9841 27.0781C23.6798 27.8124 23.2329 28.4791 22.6693 29.0396V29.0402ZM27.9377 30.5133L25.5045 19.8894V7.99203L26.9814 8.55834C27.2524 8.66187 27.4899 8.8375 27.6683 9.06625C27.8466 9.295 27.9591 9.56816 27.9934 9.85619L30.1678 27.9304L28.4413 28.3633C28.3179 28.3972 28.2109 28.4742 28.1396 28.5804C28.0684 28.6867 28.0378 28.815 28.0533 28.9419C28.0688 29.0689 28.1295 29.186 28.2242 29.2719C28.319 29.3578 28.4415 29.4068 28.5693 29.4099C28.5481 29.4747 30.2603 28.9775 30.2959 28.9939L30.3814 29.7058L27.9377 30.5133Z" fill="white"/>
<path d="M23.1428 13.2667H19.1813C19.0404 13.2667 18.9053 13.3227 18.8056 13.4223C18.706 13.5219 18.65 13.657 18.65 13.7979V17.1788C18.65 17.2684 18.6727 17.3565 18.7158 17.435C18.759 17.5135 18.8214 17.5798 18.8971 17.6277L20.775 18.8166C20.8602 18.8706 20.959 18.8991 21.0598 18.899C21.1267 18.9819 23.3798 17.8413 23.4887 17.8131C23.5825 17.7689 23.6614 17.6981 23.7155 17.6095C23.7696 17.521 23.7965 17.4185 23.7931 17.3148L23.6741 13.7799C23.6694 13.6421 23.6113 13.5116 23.5122 13.4158C23.4131 13.3201 23.2806 13.2666 23.1428 13.2667ZM21.0975 17.7632L19.7125 16.8866V14.3292H22.6291L22.7194 17.0003L21.0975 17.7632ZM14.6641 12.2334C14.805 12.2334 14.9401 12.1774 15.0397 12.0778C15.1393 11.9782 15.1953 11.843 15.1953 11.7021C15.1953 11.5613 15.1393 11.4261 15.0397 11.3265C14.9401 11.2269 14.805 11.1709 14.6641 11.1709C14.5232 11.1709 14.388 11.2269 14.2884 11.3265C14.1888 11.4261 14.1328 11.5613 14.1328 11.7021C14.1328 11.843 14.1888 11.9782 14.2884 12.0778C14.388 12.1774 14.5232 12.2334 14.6641 12.2334ZM14.6641 14.4901C14.5232 14.4901 14.388 14.5461 14.2884 14.6457C14.1888 14.7454 14.1328 14.8805 14.1328 15.0214C14.1328 15.1623 14.1888 15.2974 14.2884 15.397C14.388 15.4967 14.5232 15.5526 14.6641 15.5526C14.805 15.5526 14.9401 15.4967 15.0397 15.397C15.1393 15.2974 15.1953 15.1623 15.1953 15.0214C15.1953 14.8805 15.1393 14.7454 15.0397 14.6457C14.9401 14.5461 14.805 14.4901 14.6641 14.4901ZM14.6641 17.8094C14.5232 17.8094 14.388 17.8654 14.2884 17.965C14.1888 18.0646 14.1328 18.1998 14.1328 18.3406C14.1328 18.4815 14.1888 18.6167 14.2884 18.7163C14.388 18.8159 14.5232 18.8719 14.6641 18.8719C14.805 18.8719 14.9401 18.8159 15.0397 18.7163C15.1393 18.6167 15.1953 18.4815 15.1953 18.3406C15.1953 18.1998 15.1393 18.0646 15.0397 17.965C14.9401 17.8654 14.805 17.8094 14.6641 17.8094ZM14.6641 21.1292C14.5232 21.1292 14.388 21.1852 14.2884 21.2848C14.1888 21.3844 14.1328 21.5195 14.1328 21.6604C14.1328 21.8013 14.1888 21.9365 14.2884 22.0361C14.388 22.1357 14.5232 22.1917 14.6641 22.1917C14.805 22.1917 14.9401 22.1357 15.0397 22.0361C15.1393 21.9365 15.1953 21.8013 15.1953 21.6604C15.1953 21.5195 15.1393 21.3844 15.0397 21.2848C14.9401 21.1852 14.805 21.1292 14.6641 21.1292ZM14.6641 24.4479C14.5232 24.4479 14.388 24.5039 14.2884 24.6035C14.1888 24.7031 14.1328 24.8383 14.1328 24.9791C14.1328 25.12 14.1888 25.2552 14.2884 25.3548C14.388 25.4544 14.5232 25.5104 14.6641 25.5104C14.805 25.5104 14.9401 25.4544 15.0397 25.3548C15.1393 25.2552 15.1953 25.12 15.1953 24.9791C15.1953 24.8383 15.1393 24.7031 15.0397 24.6035C14.9401 24.5039 14.805 24.4479 14.6641 24.4479Z" fill="white"/>
</svg>
