<svg width="11" height="15" viewBox="0 0 11 15" fill="none" xmlns="http://www.w3.org/2000/svg">
<path d="M3.70375 11.6267C3.56955 11.6267 3.44085 11.68 3.34596 11.7749C3.25106 11.8698 3.19775 11.9985 3.19775 12.1327C3.19775 12.2669 3.25106 12.3956 3.34596 12.4905C3.44085 12.5854 3.56955 12.6387 3.70375 12.6387V11.6267ZM7.07705 12.6387C7.21125 12.6387 7.33995 12.5854 7.43485 12.4905C7.52974 12.3956 7.58305 12.2669 7.58305 12.1327C7.58305 11.9985 7.52974 11.8698 7.43485 11.7749C7.33995 11.68 7.21125 11.6267 7.07705 11.6267V12.6387ZM4.88441 14.494C4.88441 14.6282 4.93772 14.7569 5.03261 14.8518C5.1275 14.9467 5.2562 15 5.3904 15C5.5246 15 5.6533 14.9467 5.74819 14.8518C5.84309 14.7569 5.8964 14.6282 5.8964 14.494H4.88441ZM4.88441 10.446V12.1327H5.8964V10.446H4.88441ZM5.3904 11.6267H3.70375V12.6387H5.3904V11.6267ZM7.07705 11.6267H5.3904V12.6387H7.07705V11.6267ZM4.88441 12.1327V14.494H5.8964V12.1327H4.88441Z" fill="#A1A1A1"/>
<path d="M3.02885 1.63227C4.02114 1.05963 5.18776 0.867216 6.31138 1.09089C7.43501 1.31456 8.43901 1.93905 9.13637 2.84804C9.83372 3.75703 10.1769 4.88852 10.1019 6.03173C10.0269 7.17495 9.53889 8.25192 8.72878 9.06204C7.91867 9.87215 6.8417 10.3601 5.69848 10.4351C4.55527 10.5101 3.42378 10.167 2.51479 9.46962C1.6058 8.77227 0.981304 7.76826 0.757634 6.64464C0.533964 5.52101 0.726374 4.35439 1.29902 3.3621" stroke="#A1A1A1" stroke-width="1.01199" stroke-linecap="round"/>
</svg>
