<svg width="24" height="24" viewBox="0 0 24 24" fill="none" xmlns="http://www.w3.org/2000/svg">
<path d="M9.28647 15.6529C9.13164 15.8077 9.05422 15.9936 9.05422 16.2103C9.05422 16.4271 9.13164 16.6129 9.28647 16.7677C9.44131 16.9226 9.62518 17 9.83808 17C10.051 17 10.2349 16.9226 10.3897 16.7677L14.7677 12.2968C14.9226 12.142 15 11.9561 15 11.7394C15 11.5226 14.9226 11.3368 14.7677 11.182L10.3897 6.71101C10.2349 6.55617 10.051 6.47875 9.83808 6.47875C9.62518 6.47875 9.44131 6.55617 9.28647 6.71101C9.13164 6.86585 9.05422 7.05359 9.05422 7.27423C9.05422 7.49488 9.13164 7.68262 9.28647 7.83745L12.8748 11.7394L9.28647 15.6529Z" fill="#A1A1A1"/>
</svg>
