<svg width="24" height="24" viewBox="0 0 24 24" fill="none" xmlns="http://www.w3.org/2000/svg">
<rect width="24" height="24" rx="12" fill="#F4F4F4"/>
<path d="M7.65117 8.85623C8.76493 8.21344 10.0744 7.99745 11.3356 8.24848C12.5968 8.49951 13.7237 9.20045 14.5065 10.2207C15.2892 11.241 15.6744 12.511 15.5903 13.7942C15.5061 15.0774 14.9583 16.2862 14.0491 17.1955C13.1398 18.1048 11.9309 18.6526 10.6477 18.7367C9.36454 18.8209 8.09451 18.4357 7.07424 17.653C6.05396 16.8702 5.35302 15.7433 5.10199 14.4821C4.85096 13.2209 5.06696 11.9114 5.70975 10.7977" stroke="#427CD4" stroke-width="0.993901" stroke-linecap="round"/>
<path d="M18.2523 5.49695H18.7493C18.7493 5.36515 18.6969 5.23875 18.6037 5.14555C18.5105 5.05236 18.3841 5 18.2523 5V5.49695ZM17.7554 8.80995C17.7554 8.94175 17.8077 9.06815 17.9009 9.16135C17.9941 9.25455 18.1205 9.3069 18.2523 9.3069C18.3841 9.3069 18.5105 9.25455 18.6037 9.16135C18.6969 9.06815 18.7493 8.94175 18.7493 8.80995H17.7554ZM14.9393 5C14.8075 5 14.6811 5.05236 14.5879 5.14555C14.4947 5.23875 14.4424 5.36515 14.4424 5.49695C14.4424 5.62875 14.4947 5.75515 14.5879 5.84835C14.6811 5.94154 14.8075 5.9939 14.9393 5.9939V5ZM14.2966 10.155L18.6035 5.84813L17.9011 5.14577L13.5942 9.45268L14.2966 10.155ZM17.7554 5.49695V8.80995H18.7493V5.49695H17.7554ZM14.9393 5.9939H18.2523V5H14.9393V5.9939Z" fill="#427CD4"/>
</svg>
