<svg width="30" height="30" viewBox="0 0 30 30" fill="none" xmlns="http://www.w3.org/2000/svg">
<path d="M29.7909 13.9119L27.0029 10.0359C26.9009 9.89992 26.7649 9.79792 26.5949 9.76392L19.2169 7.58792C20.2029 6.36392 20.9509 4.96992 20.9509 3.71192C20.9509 2.14792 20.0329 0.855916 18.6389 0.447916C17.3469 0.0399162 15.9869 0.447916 15.0009 1.46792C13.9809 0.447916 12.6209 0.0399162 11.3629 0.413916C9.96889 0.821916 9.0509 2.11392 9.0509 3.67792C9.0509 4.93592 9.83289 6.29592 10.7849 7.55392L3.4069 9.72992C3.2369 9.76392 3.1009 9.86592 2.9989 10.0019L0.210895 13.9119C-0.0611047 14.3199 0.0748953 14.8639 0.550895 15.0679L2.8629 16.0539V24.9619C2.8629 25.3019 3.0669 25.5739 3.3729 25.6759L14.7289 29.6879C14.8989 29.7559 15.0689 29.7559 15.2389 29.6879L26.5949 25.6759C26.9009 25.5739 27.1049 25.2679 27.1049 24.9619V16.0199L29.4169 15.0339C29.8929 14.8639 30.0629 14.2859 29.7909 13.9119ZM11.7709 1.90992C12.5869 1.67192 13.6069 2.01192 14.3549 3.13392C14.6609 3.60992 15.3409 3.60992 15.6469 3.13392C16.4289 1.90992 17.5169 1.70592 18.1969 1.90992C18.9449 2.11392 19.4209 2.79392 19.4209 3.71192C19.4209 5.54792 16.5649 8.36992 15.0009 9.69592C13.4369 8.36992 10.5809 5.54792 10.5809 3.71192C10.5809 2.79392 11.0229 2.11392 11.7709 1.90992ZM14.5249 11.2599C14.7969 11.4979 15.2049 11.4979 15.4769 11.2599C15.7489 11.0559 16.9049 10.1039 18.0949 8.81192L23.8749 10.5119L15.0009 13.6739L6.12689 10.5459L11.9069 8.84592C13.0969 10.1039 14.2529 11.0559 14.5249 11.2599ZM3.9169 11.3619L13.7769 14.8299L11.4649 17.9579L2.0129 14.0139L3.9169 11.3619ZM4.39289 16.6659L11.4309 19.6239C11.7709 19.7599 12.1449 19.6579 12.3489 19.3859L14.2189 16.8359V27.8859L4.39289 24.3839V16.6659ZM25.6089 24.3839L15.7829 27.8519V16.8019L17.6529 19.3519C17.8569 19.6239 18.2309 19.7259 18.5709 19.5899L25.6089 16.6319V24.3839ZM18.5369 17.9919L16.2249 14.8639L26.0849 11.3959L27.9889 14.0479L18.5369 17.9919Z" fill="white"/>
</svg>
