<svg width="34" height="34" viewBox="0 0 34 34" fill="none" xmlns="http://www.w3.org/2000/svg">
<mask id="path-1-outside-1_512_8756" maskUnits="userSpaceOnUse" x="-0.00390625" y="2.65186" width="34" height="28" fill="black">
<rect fill="white" x="-0.00390625" y="2.65186" width="34" height="28"/>
<path d="M5.64852 16.287V8.11967C5.64852 7.89986 5.82715 7.72123 6.04695 7.72123C6.26676 7.72123 6.44539 7.89986 6.44539 8.11967V16.287C6.44539 16.5068 6.26676 16.6854 6.04695 16.6854C5.82715 16.6854 5.64852 16.5074 5.64852 16.287ZM8.44887 17.2346C8.55113 17.2346 8.65406 17.1954 8.73176 17.1164C11.1921 14.6321 12.8211 11.6571 13.5734 8.27439C13.5848 8.22329 13.5859 8.17046 13.5769 8.1189C13.5678 8.06735 13.5486 8.01809 13.5205 7.97394C13.4924 7.92979 13.4559 7.89161 13.413 7.86158C13.3701 7.83155 13.3217 7.81026 13.2706 7.79893C13.1675 7.77602 13.0595 7.79498 12.9704 7.85163C12.8812 7.90828 12.8182 7.998 12.7952 8.10107C12.066 11.3802 10.552 14.1454 8.16531 16.5553C8.01059 16.7113 8.01191 16.9637 8.16797 17.119C8.24277 17.193 8.34369 17.2345 8.44887 17.2346ZM27.953 16.6854C28.1729 16.6854 28.3515 16.5068 28.3515 16.287V8.11967C28.3515 7.89986 28.1729 7.72123 27.953 7.72123C27.7332 7.72123 27.5546 7.89986 27.5546 8.11967V16.287C27.5546 16.5074 27.7332 16.6854 27.953 16.6854ZM20.4259 8.27506C21.1776 11.6578 22.8066 14.6321 25.2676 17.1171C25.3046 17.1545 25.3486 17.1842 25.3972 17.2045C25.4458 17.2247 25.4978 17.2352 25.5505 17.2353C25.6521 17.2353 25.753 17.1967 25.8307 17.1197C25.9057 17.0452 25.9481 16.9441 25.9486 16.8384C25.9491 16.7327 25.9076 16.6311 25.8334 16.5559C23.4467 14.1467 21.9327 11.3809 21.2035 8.1024C21.1557 7.88725 20.9425 7.75244 20.728 7.79959C20.5142 7.8474 20.3787 8.0599 20.4259 8.27506ZM33.0039 4.93947V5.59756C33.0039 6.30744 32.4262 6.88518 31.7163 6.88518C31.3079 6.88518 30.944 6.69326 30.7076 6.39576H30.2686V29.709C30.2686 29.8843 30.1551 30.0331 29.9977 30.0862L29.9917 30.0882C29.9897 30.0888 29.9877 30.0895 29.9851 30.0902C29.4293 30.2768 28.9073 30.3485 28.4152 30.3485C27.5294 30.3485 26.7371 30.1161 26.008 29.9022C24.7596 29.5363 23.7741 29.2468 22.6811 30.1685C22.6213 30.2188 22.5481 30.2505 22.4706 30.2596C22.393 30.2687 22.3145 30.2548 22.2448 30.2197C22.175 30.1845 22.1171 30.1295 22.0783 30.0616C22.0396 29.9937 22.0217 29.9158 22.027 29.8378C22.5044 22.492 23.1831 20.0681 23.7289 19.1033C19.963 16.5413 18.7764 11.8364 17.7789 6.3951H16.2197C15.2223 11.8371 14.0363 16.5413 10.2697 19.1033C10.8156 20.0681 11.4943 22.492 11.9717 29.8378C11.9823 29.9972 11.896 30.1473 11.7539 30.2197C11.6842 30.2548 11.6056 30.2687 11.5281 30.2596C11.4505 30.2505 11.3773 30.2188 11.3176 30.1685C10.2246 29.2468 9.2391 29.5363 7.99066 29.9022C7.26152 30.1161 6.4693 30.3485 5.58344 30.3485C5.09137 30.3485 4.57008 30.2768 4.01359 30.0902C4.0116 30.0895 4.00961 30.0888 4.00695 30.0882L4.00098 30.0862C3.92205 30.0595 3.85346 30.0088 3.80486 29.9412C3.75626 29.8735 3.73009 29.7923 3.73004 29.709V6.39643H3.29109C3.05469 6.69393 2.69078 6.88584 2.28238 6.88584C1.57383 6.88584 0.996094 6.30811 0.996094 5.59756V4.93947C0.996094 4.22959 1.57383 3.65186 2.28371 3.65186C2.69211 3.65186 3.05602 3.84377 3.29242 4.14127H30.7076C30.944 3.84377 31.3079 3.65186 31.7163 3.65186C32.4262 3.65186 33.0039 4.22959 33.0039 4.93947ZM2.77512 5.59756V4.93947C2.77512 4.66853 2.55465 4.44873 2.28438 4.44873C2.01344 4.44873 1.79363 4.6692 1.79363 4.93947V5.59756C1.79363 5.8685 2.0141 6.0883 2.28438 6.0883C2.55465 6.08896 2.77512 5.8685 2.77512 5.59756ZM9.5127 19.3921C9.48348 19.3921 9.45359 19.3928 9.42437 19.3928C9.22051 19.3928 9.02195 19.3888 8.82738 19.3822L9.15145 22.0776C9.15822 22.1335 9.15303 22.1903 9.13622 22.2441C9.11942 22.2978 9.09137 22.3474 9.05395 22.3896C9.01653 22.4317 8.97059 22.4654 8.91917 22.4884C8.86774 22.5115 8.81201 22.5233 8.75566 22.5232C8.55711 22.5232 8.38512 22.3744 8.36055 22.1726L8.01855 19.331C7.51984 19.2846 7.05633 19.2108 6.62668 19.1106V25.5374C6.62668 25.7572 6.44805 25.9358 6.22824 25.9358C6.00844 25.9358 5.8298 25.7572 5.8298 25.5374V18.8795C5.34371 18.7088 4.91008 18.495 4.52824 18.238V29.4135C5.73418 29.7342 6.7668 29.4321 7.76687 29.1386C8.84863 28.8212 9.9616 28.4944 11.1224 29.0841C10.6595 22.5292 10.0141 20.1678 9.5127 19.3921ZM15.4102 6.39643H4.52891V17.2299C5.5675 18.1709 7.22832 18.6172 9.59504 18.5953C13.2554 16.2637 14.4314 11.7056 15.4102 6.39643ZM29.4718 29.4135V18.238C29.0893 18.495 28.6563 18.7088 28.1702 18.8795V25.5367C28.1702 25.7565 27.9916 25.9351 27.7718 25.9351C27.552 25.9351 27.3733 25.7565 27.3733 25.5367V19.1099C26.9437 19.2102 26.4802 19.2832 25.9814 19.3304L25.6395 22.1719C25.6278 22.2685 25.5811 22.3575 25.5084 22.4221C25.4356 22.4867 25.3417 22.5224 25.2443 22.5225C25.2284 22.5225 25.2125 22.5219 25.1965 22.5199C24.978 22.4933 24.822 22.2954 24.8486 22.0769L25.1726 19.3815C24.978 19.3881 24.7795 19.3921 24.5756 19.3921C24.5464 19.3921 24.5165 19.3915 24.4873 19.3915C23.9859 20.1671 23.3405 22.5278 22.877 29.0835C24.0384 28.4938 25.1507 28.8205 26.2325 29.1379C27.2332 29.4321 28.2652 29.7342 29.4718 29.4135ZM29.4718 6.39643H18.5898C19.5686 11.7063 20.7446 16.2637 24.4056 18.5953C26.773 18.6172 28.4332 18.1709 29.4718 17.2299V6.39643ZM30.428 4.93814H3.57199V5.59955H30.4287V4.93814H30.428ZM32.207 4.93947C32.207 4.66853 31.9866 4.44873 31.7163 4.44873C31.4454 4.44873 31.2255 4.6692 31.2255 4.93947V5.59756C31.2255 5.8685 31.446 6.0883 31.7163 6.0883C31.9872 6.0883 32.207 5.86783 32.207 5.59756V4.93947Z"/>
</mask>
<path d="M5.64852 16.287V8.11967C5.64852 7.89986 5.82715 7.72123 6.04695 7.72123C6.26676 7.72123 6.44539 7.89986 6.44539 8.11967V16.287C6.44539 16.5068 6.26676 16.6854 6.04695 16.6854C5.82715 16.6854 5.64852 16.5074 5.64852 16.287ZM8.44887 17.2346C8.55113 17.2346 8.65406 17.1954 8.73176 17.1164C11.1921 14.6321 12.8211 11.6571 13.5734 8.27439C13.5848 8.22329 13.5859 8.17046 13.5769 8.1189C13.5678 8.06735 13.5486 8.01809 13.5205 7.97394C13.4924 7.92979 13.4559 7.89161 13.413 7.86158C13.3701 7.83155 13.3217 7.81026 13.2706 7.79893C13.1675 7.77602 13.0595 7.79498 12.9704 7.85163C12.8812 7.90828 12.8182 7.998 12.7952 8.10107C12.066 11.3802 10.552 14.1454 8.16531 16.5553C8.01059 16.7113 8.01191 16.9637 8.16797 17.119C8.24277 17.193 8.34369 17.2345 8.44887 17.2346ZM27.953 16.6854C28.1729 16.6854 28.3515 16.5068 28.3515 16.287V8.11967C28.3515 7.89986 28.1729 7.72123 27.953 7.72123C27.7332 7.72123 27.5546 7.89986 27.5546 8.11967V16.287C27.5546 16.5074 27.7332 16.6854 27.953 16.6854ZM20.4259 8.27506C21.1776 11.6578 22.8066 14.6321 25.2676 17.1171C25.3046 17.1545 25.3486 17.1842 25.3972 17.2045C25.4458 17.2247 25.4978 17.2352 25.5505 17.2353C25.6521 17.2353 25.753 17.1967 25.8307 17.1197C25.9057 17.0452 25.9481 16.9441 25.9486 16.8384C25.9491 16.7327 25.9076 16.6311 25.8334 16.5559C23.4467 14.1467 21.9327 11.3809 21.2035 8.1024C21.1557 7.88725 20.9425 7.75244 20.728 7.79959C20.5142 7.8474 20.3787 8.0599 20.4259 8.27506ZM33.0039 4.93947V5.59756C33.0039 6.30744 32.4262 6.88518 31.7163 6.88518C31.3079 6.88518 30.944 6.69326 30.7076 6.39576H30.2686V29.709C30.2686 29.8843 30.1551 30.0331 29.9977 30.0862L29.9917 30.0882C29.9897 30.0888 29.9877 30.0895 29.9851 30.0902C29.4293 30.2768 28.9073 30.3485 28.4152 30.3485C27.5294 30.3485 26.7371 30.1161 26.008 29.9022C24.7596 29.5363 23.7741 29.2468 22.6811 30.1685C22.6213 30.2188 22.5481 30.2505 22.4706 30.2596C22.393 30.2687 22.3145 30.2548 22.2448 30.2197C22.175 30.1845 22.1171 30.1295 22.0783 30.0616C22.0396 29.9937 22.0217 29.9158 22.027 29.8378C22.5044 22.492 23.1831 20.0681 23.7289 19.1033C19.963 16.5413 18.7764 11.8364 17.7789 6.3951H16.2197C15.2223 11.8371 14.0363 16.5413 10.2697 19.1033C10.8156 20.0681 11.4943 22.492 11.9717 29.8378C11.9823 29.9972 11.896 30.1473 11.7539 30.2197C11.6842 30.2548 11.6056 30.2687 11.5281 30.2596C11.4505 30.2505 11.3773 30.2188 11.3176 30.1685C10.2246 29.2468 9.2391 29.5363 7.99066 29.9022C7.26152 30.1161 6.4693 30.3485 5.58344 30.3485C5.09137 30.3485 4.57008 30.2768 4.01359 30.0902C4.0116 30.0895 4.00961 30.0888 4.00695 30.0882L4.00098 30.0862C3.92205 30.0595 3.85346 30.0088 3.80486 29.9412C3.75626 29.8735 3.73009 29.7923 3.73004 29.709V6.39643H3.29109C3.05469 6.69393 2.69078 6.88584 2.28238 6.88584C1.57383 6.88584 0.996094 6.30811 0.996094 5.59756V4.93947C0.996094 4.22959 1.57383 3.65186 2.28371 3.65186C2.69211 3.65186 3.05602 3.84377 3.29242 4.14127H30.7076C30.944 3.84377 31.3079 3.65186 31.7163 3.65186C32.4262 3.65186 33.0039 4.22959 33.0039 4.93947ZM2.77512 5.59756V4.93947C2.77512 4.66853 2.55465 4.44873 2.28438 4.44873C2.01344 4.44873 1.79363 4.6692 1.79363 4.93947V5.59756C1.79363 5.8685 2.0141 6.0883 2.28438 6.0883C2.55465 6.08896 2.77512 5.8685 2.77512 5.59756ZM9.5127 19.3921C9.48348 19.3921 9.45359 19.3928 9.42437 19.3928C9.22051 19.3928 9.02195 19.3888 8.82738 19.3822L9.15145 22.0776C9.15822 22.1335 9.15303 22.1903 9.13622 22.2441C9.11942 22.2978 9.09137 22.3474 9.05395 22.3896C9.01653 22.4317 8.97059 22.4654 8.91917 22.4884C8.86774 22.5115 8.81201 22.5233 8.75566 22.5232C8.55711 22.5232 8.38512 22.3744 8.36055 22.1726L8.01855 19.331C7.51984 19.2846 7.05633 19.2108 6.62668 19.1106V25.5374C6.62668 25.7572 6.44805 25.9358 6.22824 25.9358C6.00844 25.9358 5.8298 25.7572 5.8298 25.5374V18.8795C5.34371 18.7088 4.91008 18.495 4.52824 18.238V29.4135C5.73418 29.7342 6.7668 29.4321 7.76687 29.1386C8.84863 28.8212 9.9616 28.4944 11.1224 29.0841C10.6595 22.5292 10.0141 20.1678 9.5127 19.3921ZM15.4102 6.39643H4.52891V17.2299C5.5675 18.1709 7.22832 18.6172 9.59504 18.5953C13.2554 16.2637 14.4314 11.7056 15.4102 6.39643ZM29.4718 29.4135V18.238C29.0893 18.495 28.6563 18.7088 28.1702 18.8795V25.5367C28.1702 25.7565 27.9916 25.9351 27.7718 25.9351C27.552 25.9351 27.3733 25.7565 27.3733 25.5367V19.1099C26.9437 19.2102 26.4802 19.2832 25.9814 19.3304L25.6395 22.1719C25.6278 22.2685 25.5811 22.3575 25.5084 22.4221C25.4356 22.4867 25.3417 22.5224 25.2443 22.5225C25.2284 22.5225 25.2125 22.5219 25.1965 22.5199C24.978 22.4933 24.822 22.2954 24.8486 22.0769L25.1726 19.3815C24.978 19.3881 24.7795 19.3921 24.5756 19.3921C24.5464 19.3921 24.5165 19.3915 24.4873 19.3915C23.9859 20.1671 23.3405 22.5278 22.877 29.0835C24.0384 28.4938 25.1507 28.8205 26.2325 29.1379C27.2332 29.4321 28.2652 29.7342 29.4718 29.4135ZM29.4718 6.39643H18.5898C19.5686 11.7063 20.7446 16.2637 24.4056 18.5953C26.773 18.6172 28.4332 18.1709 29.4718 17.2299V6.39643ZM30.428 4.93814H3.57199V5.59955H30.4287V4.93814H30.428ZM32.207 4.93947C32.207 4.66853 31.9866 4.44873 31.7163 4.44873C31.4454 4.44873 31.2255 4.6692 31.2255 4.93947V5.59756C31.2255 5.8685 31.446 6.0883 31.7163 6.0883C31.9872 6.0883 32.207 5.86783 32.207 5.59756V4.93947Z" fill="white"/>
<path d="M5.64852 16.287V8.11967C5.64852 7.89986 5.82715 7.72123 6.04695 7.72123C6.26676 7.72123 6.44539 7.89986 6.44539 8.11967V16.287C6.44539 16.5068 6.26676 16.6854 6.04695 16.6854C5.82715 16.6854 5.64852 16.5074 5.64852 16.287ZM8.44887 17.2346C8.55113 17.2346 8.65406 17.1954 8.73176 17.1164C11.1921 14.6321 12.8211 11.6571 13.5734 8.27439C13.5848 8.22329 13.5859 8.17046 13.5769 8.1189C13.5678 8.06735 13.5486 8.01809 13.5205 7.97394C13.4924 7.92979 13.4559 7.89161 13.413 7.86158C13.3701 7.83155 13.3217 7.81026 13.2706 7.79893C13.1675 7.77602 13.0595 7.79498 12.9704 7.85163C12.8812 7.90828 12.8182 7.998 12.7952 8.10107C12.066 11.3802 10.552 14.1454 8.16531 16.5553C8.01059 16.7113 8.01191 16.9637 8.16797 17.119C8.24277 17.193 8.34369 17.2345 8.44887 17.2346ZM27.953 16.6854C28.1729 16.6854 28.3515 16.5068 28.3515 16.287V8.11967C28.3515 7.89986 28.1729 7.72123 27.953 7.72123C27.7332 7.72123 27.5546 7.89986 27.5546 8.11967V16.287C27.5546 16.5074 27.7332 16.6854 27.953 16.6854ZM20.4259 8.27506C21.1776 11.6578 22.8066 14.6321 25.2676 17.1171C25.3046 17.1545 25.3486 17.1842 25.3972 17.2045C25.4458 17.2247 25.4978 17.2352 25.5505 17.2353C25.6521 17.2353 25.753 17.1967 25.8307 17.1197C25.9057 17.0452 25.9481 16.9441 25.9486 16.8384C25.9491 16.7327 25.9076 16.6311 25.8334 16.5559C23.4467 14.1467 21.9327 11.3809 21.2035 8.1024C21.1557 7.88725 20.9425 7.75244 20.728 7.79959C20.5142 7.8474 20.3787 8.0599 20.4259 8.27506ZM33.0039 4.93947V5.59756C33.0039 6.30744 32.4262 6.88518 31.7163 6.88518C31.3079 6.88518 30.944 6.69326 30.7076 6.39576H30.2686V29.709C30.2686 29.8843 30.1551 30.0331 29.9977 30.0862L29.9917 30.0882C29.9897 30.0888 29.9877 30.0895 29.9851 30.0902C29.4293 30.2768 28.9073 30.3485 28.4152 30.3485C27.5294 30.3485 26.7371 30.1161 26.008 29.9022C24.7596 29.5363 23.7741 29.2468 22.6811 30.1685C22.6213 30.2188 22.5481 30.2505 22.4706 30.2596C22.393 30.2687 22.3145 30.2548 22.2448 30.2197C22.175 30.1845 22.1171 30.1295 22.0783 30.0616C22.0396 29.9937 22.0217 29.9158 22.027 29.8378C22.5044 22.492 23.1831 20.0681 23.7289 19.1033C19.963 16.5413 18.7764 11.8364 17.7789 6.3951H16.2197C15.2223 11.8371 14.0363 16.5413 10.2697 19.1033C10.8156 20.0681 11.4943 22.492 11.9717 29.8378C11.9823 29.9972 11.896 30.1473 11.7539 30.2197C11.6842 30.2548 11.6056 30.2687 11.5281 30.2596C11.4505 30.2505 11.3773 30.2188 11.3176 30.1685C10.2246 29.2468 9.2391 29.5363 7.99066 29.9022C7.26152 30.1161 6.4693 30.3485 5.58344 30.3485C5.09137 30.3485 4.57008 30.2768 4.01359 30.0902C4.0116 30.0895 4.00961 30.0888 4.00695 30.0882L4.00098 30.0862C3.92205 30.0595 3.85346 30.0088 3.80486 29.9412C3.75626 29.8735 3.73009 29.7923 3.73004 29.709V6.39643H3.29109C3.05469 6.69393 2.69078 6.88584 2.28238 6.88584C1.57383 6.88584 0.996094 6.30811 0.996094 5.59756V4.93947C0.996094 4.22959 1.57383 3.65186 2.28371 3.65186C2.69211 3.65186 3.05602 3.84377 3.29242 4.14127H30.7076C30.944 3.84377 31.3079 3.65186 31.7163 3.65186C32.4262 3.65186 33.0039 4.22959 33.0039 4.93947ZM2.77512 5.59756V4.93947C2.77512 4.66853 2.55465 4.44873 2.28438 4.44873C2.01344 4.44873 1.79363 4.6692 1.79363 4.93947V5.59756C1.79363 5.8685 2.0141 6.0883 2.28438 6.0883C2.55465 6.08896 2.77512 5.8685 2.77512 5.59756ZM9.5127 19.3921C9.48348 19.3921 9.45359 19.3928 9.42437 19.3928C9.22051 19.3928 9.02195 19.3888 8.82738 19.3822L9.15145 22.0776C9.15822 22.1335 9.15303 22.1903 9.13622 22.2441C9.11942 22.2978 9.09137 22.3474 9.05395 22.3896C9.01653 22.4317 8.97059 22.4654 8.91917 22.4884C8.86774 22.5115 8.81201 22.5233 8.75566 22.5232C8.55711 22.5232 8.38512 22.3744 8.36055 22.1726L8.01855 19.331C7.51984 19.2846 7.05633 19.2108 6.62668 19.1106V25.5374C6.62668 25.7572 6.44805 25.9358 6.22824 25.9358C6.00844 25.9358 5.8298 25.7572 5.8298 25.5374V18.8795C5.34371 18.7088 4.91008 18.495 4.52824 18.238V29.4135C5.73418 29.7342 6.7668 29.4321 7.76687 29.1386C8.84863 28.8212 9.9616 28.4944 11.1224 29.0841C10.6595 22.5292 10.0141 20.1678 9.5127 19.3921ZM15.4102 6.39643H4.52891V17.2299C5.5675 18.1709 7.22832 18.6172 9.59504 18.5953C13.2554 16.2637 14.4314 11.7056 15.4102 6.39643ZM29.4718 29.4135V18.238C29.0893 18.495 28.6563 18.7088 28.1702 18.8795V25.5367C28.1702 25.7565 27.9916 25.9351 27.7718 25.9351C27.552 25.9351 27.3733 25.7565 27.3733 25.5367V19.1099C26.9437 19.2102 26.4802 19.2832 25.9814 19.3304L25.6395 22.1719C25.6278 22.2685 25.5811 22.3575 25.5084 22.4221C25.4356 22.4867 25.3417 22.5224 25.2443 22.5225C25.2284 22.5225 25.2125 22.5219 25.1965 22.5199C24.978 22.4933 24.822 22.2954 24.8486 22.0769L25.1726 19.3815C24.978 19.3881 24.7795 19.3921 24.5756 19.3921C24.5464 19.3921 24.5165 19.3915 24.4873 19.3915C23.9859 20.1671 23.3405 22.5278 22.877 29.0835C24.0384 28.4938 25.1507 28.8205 26.2325 29.1379C27.2332 29.4321 28.2652 29.7342 29.4718 29.4135ZM29.4718 6.39643H18.5898C19.5686 11.7063 20.7446 16.2637 24.4056 18.5953C26.773 18.6172 28.4332 18.1709 29.4718 17.2299V6.39643ZM30.428 4.93814H3.57199V5.59955H30.4287V4.93814H30.428ZM32.207 4.93947C32.207 4.66853 31.9866 4.44873 31.7163 4.44873C31.4454 4.44873 31.2255 4.6692 31.2255 4.93947V5.59756C31.2255 5.8685 31.446 6.0883 31.7163 6.0883C31.9872 6.0883 32.207 5.86783 32.207 5.59756V4.93947Z" stroke="white" stroke-width="0.5" mask="url(#path-1-outside-1_512_8756)"/>
</svg>
