<svg width="12" height="12" viewBox="0 0 12 12" fill="none" xmlns="http://www.w3.org/2000/svg">
<path d="M6 12C2.6862 12 0 9.3138 0 6C0 2.6862 2.6862 0 6 0C9.3138 0 12 2.6862 12 6C12 9.3138 9.3138 12 6 12ZM6 10.8C7.27304 10.8 8.49394 10.2943 9.39411 9.39411C10.2943 8.49394 10.8 7.27304 10.8 6C10.8 4.72696 10.2943 3.50606 9.39411 2.60589C8.49394 1.70571 7.27304 1.2 6 1.2C4.72696 1.2 3.50606 1.70571 2.60589 2.60589C1.70571 3.50606 1.2 4.72696 1.2 6C1.2 7.27304 1.70571 8.49394 2.60589 9.39411C3.50606 10.2943 4.72696 10.8 6 10.8ZM6 4.8C6.15913 4.8 6.31174 4.86321 6.42426 4.97574C6.53679 5.08826 6.6 5.24087 6.6 5.4V8.4C6.6 8.55913 6.53679 8.71174 6.42426 8.82426C6.31174 8.93679 6.15913 9 6 9C5.84087 9 5.68826 8.93679 5.57574 8.82426C5.46321 8.71174 5.4 8.55913 5.4 8.4V5.4C5.4 5.24087 5.46321 5.08826 5.57574 4.97574C5.68826 4.86321 5.84087 4.8 6 4.8ZM6 4.2C5.84087 4.2 5.68826 4.13679 5.57574 4.02426C5.46321 3.91174 5.4 3.75913 5.4 3.6C5.4 3.44087 5.46321 3.28826 5.57574 3.17574C5.68826 3.06321 5.84087 3 6 3C6.15913 3 6.31174 3.06321 6.42426 3.17574C6.53679 3.28826 6.6 3.44087 6.6 3.6C6.6 3.75913 6.53679 3.91174 6.42426 4.02426C6.31174 4.13679 6.15913 4.2 6 4.2Z" fill="#2468CE"/>
</svg>
