<svg width="14" height="13" viewBox="0 0 14 13" fill="none" xmlns="http://www.w3.org/2000/svg">
<path d="M5.86675 5.2C5.86675 5.07144 5.82863 4.94577 5.75721 4.83888C5.68578 4.73199 5.58427 4.64868 5.4655 4.59948C5.34672 4.55028 5.21603 4.53741 5.08994 4.56249C4.96386 4.58757 4.84804 4.64948 4.75713 4.74038C4.66623 4.83129 4.60432 4.9471 4.57924 5.07319C4.55416 5.19928 4.56703 5.32997 4.61623 5.44875C4.66543 5.56752 4.74874 5.66903 4.85563 5.74046C4.96252 5.81188 5.08819 5.85 5.21675 5.85C5.38914 5.85 5.55447 5.78152 5.67637 5.65962C5.79827 5.53772 5.86675 5.37239 5.86675 5.2ZM8.79175 7.839C8.71795 7.79576 8.63634 7.7675 8.5516 7.75586C8.46686 7.74421 8.38066 7.74941 8.29793 7.77115C8.2152 7.79289 8.13758 7.83074 8.06951 7.88254C8.00144 7.93434 7.94426 7.99906 7.90125 8.073C7.82746 8.20274 7.72062 8.31061 7.59161 8.38565C7.46259 8.4607 7.316 8.50023 7.16675 8.50023C7.0175 8.50023 6.87091 8.4607 6.7419 8.38565C6.61288 8.31061 6.50604 8.20274 6.43225 8.073C6.38925 7.99906 6.33207 7.93434 6.264 7.88254C6.19593 7.83074 6.1183 7.79289 6.03558 7.77115C5.95285 7.74941 5.86664 7.74421 5.7819 7.75586C5.69716 7.7675 5.61555 7.79576 5.54175 7.839C5.39308 7.92475 5.28435 8.06582 5.23929 8.23143C5.19424 8.39704 5.21651 8.57375 5.30125 8.723C5.48978 9.05113 5.76152 9.32372 6.08905 9.51328C6.41659 9.70284 6.78832 9.80265 7.16675 9.80265C7.54518 9.80265 7.91692 9.70284 8.24445 9.51328C8.57198 9.32372 8.84372 9.05113 9.03225 8.723C9.11699 8.57375 9.13927 8.39704 9.09421 8.23143C9.04916 8.06582 8.94043 7.92475 8.79175 7.839ZM9.11675 4.55C8.98819 4.55 8.86252 4.58812 8.75563 4.65955C8.64874 4.73097 8.56543 4.83248 8.51623 4.95126C8.46703 5.07003 8.45416 5.20072 8.47924 5.32681C8.50432 5.4529 8.56623 5.56872 8.65713 5.65962C8.74804 5.75052 8.86386 5.81243 8.98994 5.83751C9.11603 5.86259 9.24673 5.84972 9.3655 5.80052C9.48427 5.75133 9.58578 5.66801 9.65721 5.56112C9.72863 5.45423 9.76675 5.32856 9.76675 5.2C9.76675 5.02761 9.69827 4.86228 9.57637 4.74038C9.45447 4.61848 9.28914 4.55 9.11675 4.55ZM7.16675 0C5.88117 0 4.62446 0.381218 3.55554 1.09545C2.48663 1.80968 1.6535 2.82484 1.16153 4.01256C0.669564 5.20028 0.540843 6.50721 0.791647 7.76809C1.04245 9.02896 1.66152 10.1872 2.57056 11.0962C3.4796 12.0052 4.63779 12.6243 5.89866 12.8751C7.15954 13.1259 8.46648 12.9972 9.65419 12.5052C10.8419 12.0132 11.8571 11.1801 12.5713 10.1112C13.2855 9.04229 13.6668 7.78558 13.6668 6.5C13.6668 5.64641 13.4986 4.80117 13.172 4.01256C12.8453 3.22394 12.3665 2.50739 11.7629 1.90381C11.1594 1.30023 10.4428 0.821439 9.65419 0.494783C8.86558 0.168128 8.02034 0 7.16675 0ZM7.16675 11.7C5.956 11.7052 4.78138 11.2878 3.84546 10.5197C2.90953 9.7516 2.27096 8.68099 2.03989 7.49248C1.80881 6.30398 1.99971 5.07209 2.57966 4.00927C3.1596 2.94645 4.09225 2.11931 5.21675 1.6705C5.21007 1.76355 5.21007 1.85695 5.21675 1.95C5.21675 2.46717 5.4222 2.96316 5.78789 3.32886C6.15359 3.69455 6.64958 3.9 7.16675 3.9C7.33914 3.9 7.50447 3.83152 7.62637 3.70962C7.74827 3.58772 7.81675 3.42239 7.81675 3.25C7.81675 3.07761 7.74827 2.91228 7.62637 2.79038C7.50447 2.66848 7.33914 2.6 7.16675 2.6C6.99436 2.6 6.82903 2.53152 6.70713 2.40962C6.58523 2.28772 6.51675 2.12239 6.51675 1.95C6.51675 1.77761 6.58523 1.61228 6.70713 1.49038C6.82903 1.36848 6.99436 1.3 7.16675 1.3C8.54588 1.3 9.86852 1.84786 10.8437 2.82305C11.8189 3.79823 12.3668 5.12087 12.3668 6.5C12.3668 7.87913 11.8189 9.20177 10.8437 10.177C9.86852 11.1521 8.54588 11.7 7.16675 11.7Z" fill="#A1A1A1"/>
</svg>
