<svg width="10" height="10" viewBox="0 0 10 10" fill="none" xmlns="http://www.w3.org/2000/svg">
<path d="M4.1 4.1C4.1 4.011 4.07361 3.924 4.02416 3.84999C3.97472 3.77599 3.90444 3.71831 3.82221 3.68425C3.73998 3.65019 3.6495 3.64128 3.56221 3.65865C3.47492 3.67601 3.39474 3.71887 3.3318 3.7818C3.26887 3.84474 3.22601 3.92492 3.20865 4.01221C3.19129 4.0995 3.2002 4.18998 3.23426 4.27221C3.26832 4.35443 3.32599 4.42471 3.4 4.47416C3.474 4.52361 3.561 4.55 3.65 4.55C3.76935 4.55 3.88381 4.50259 3.9682 4.4182C4.05259 4.33381 4.1 4.21935 4.1 4.1ZM6.125 5.927C6.07391 5.89706 6.01741 5.8775 5.95875 5.86944C5.90008 5.86138 5.8404 5.86498 5.78312 5.88003C5.72585 5.89508 5.67211 5.92128 5.62499 5.95714C5.57786 5.993 5.53828 6.03781 5.5085 6.089C5.45742 6.17882 5.38345 6.2535 5.29413 6.30545C5.20482 6.3574 5.10333 6.38477 5 6.38477C4.89667 6.38477 4.79519 6.3574 4.70587 6.30545C4.61655 6.2535 4.54259 6.17882 4.4915 6.089C4.46173 6.03781 4.42214 5.993 4.37502 5.95714C4.32789 5.92128 4.27415 5.89508 4.21688 5.88003C4.15961 5.86498 4.09993 5.86138 4.04126 5.86944C3.98259 5.8775 3.92609 5.89706 3.875 5.927C3.77207 5.98636 3.6968 6.08403 3.66561 6.19868C3.63441 6.31334 3.64983 6.43567 3.7085 6.539C3.83902 6.76616 4.02715 6.95488 4.2539 7.08612C4.48066 7.21735 4.73801 7.28645 5 7.28645C5.26199 7.28645 5.51935 7.21735 5.7461 7.08612C5.97285 6.95488 6.16098 6.76616 6.2915 6.539C6.35017 6.43567 6.36559 6.31334 6.3344 6.19868C6.3032 6.08403 6.22793 5.98636 6.125 5.927ZM6.35 3.65C6.261 3.65 6.174 3.67639 6.1 3.72584C6.02599 3.77529 5.96832 3.84557 5.93426 3.92779C5.9002 4.01002 5.89129 4.1005 5.90865 4.18779C5.92601 4.27508 5.96887 4.35526 6.0318 4.4182C6.09474 4.48113 6.17492 4.52399 6.26221 4.54135C6.3495 4.55872 6.43998 4.54981 6.52221 4.51575C6.60444 4.48169 6.67472 4.42401 6.72416 4.35001C6.77361 4.276 6.8 4.189 6.8 4.1C6.8 3.98065 6.75259 3.86619 6.6682 3.7818C6.58381 3.69741 6.46935 3.65 6.35 3.65ZM5 0.5C4.10999 0.5 3.23996 0.76392 2.49994 1.25839C1.75991 1.75285 1.18314 2.45566 0.842544 3.27792C0.50195 4.10019 0.412835 5.00499 0.586468 5.87791C0.760102 6.75082 1.18869 7.55264 1.81802 8.18198C2.44736 8.81132 3.24918 9.2399 4.1221 9.41353C4.99501 9.58717 5.89981 9.49805 6.72208 9.15746C7.54435 8.81686 8.24715 8.24009 8.74162 7.50007C9.23608 6.76005 9.5 5.89002 9.5 5C9.5 4.40905 9.38361 3.82389 9.15746 3.27792C8.93131 2.73196 8.59985 2.23588 8.18198 1.81802C7.76412 1.40016 7.26804 1.06869 6.72208 0.842542C6.17611 0.616396 5.59095 0.5 5 0.5ZM5 8.6C4.16179 8.60362 3.34859 8.31463 2.70064 7.78287C2.05269 7.25111 1.61061 6.50991 1.45063 5.6871C1.29066 4.86429 1.42282 4.01145 1.82432 3.27565C2.22582 2.53985 2.8715 1.96721 3.65 1.6565C3.64537 1.72092 3.64537 1.78558 3.65 1.85C3.65 2.20804 3.79223 2.55142 4.04541 2.80459C4.29858 3.05777 4.64196 3.2 5 3.2C5.11935 3.2 5.23381 3.15259 5.3182 3.0682C5.40259 2.98381 5.45 2.86935 5.45 2.75C5.45 2.63065 5.40259 2.51619 5.3182 2.4318C5.23381 2.34741 5.11935 2.3 5 2.3C4.88065 2.3 4.7662 2.25259 4.6818 2.1682C4.59741 2.08381 4.55 1.96935 4.55 1.85C4.55 1.73065 4.59741 1.61619 4.6818 1.5318C4.7662 1.44741 4.88065 1.4 5 1.4C5.95478 1.4 6.87046 1.77928 7.54559 2.45442C8.22072 3.12955 8.6 4.04522 8.6 5C8.6 5.95478 8.22072 6.87045 7.54559 7.54558C6.87046 8.22072 5.95478 8.6 5 8.6Z" fill="#3CC4D5"/>
</svg>
