<svg width="42" height="42" viewBox="0 0 42 42" fill="none" xmlns="http://www.w3.org/2000/svg">
<path d="M23 28C26.771 28 28.657 28 29.828 26.828C31 25.657 31 23.771 31 20C31 16.229 31 14.343 29.828 13.172C28.657 12 26.771 12 23 12H19C15.229 12 13.343 12 12.172 13.172C11 14.343 11 16.229 11 20C11 23.771 11 25.657 12.172 26.828C12.825 27.482 13.7 27.771 15 27.898" stroke="#E2001A" stroke-width="2" stroke-linecap="round" stroke-linejoin="round"/>
<path d="M23.0012 28C21.7652 28 20.4032 28.5 19.1602 29.145C17.1622 30.182 16.1632 30.701 15.6712 30.37C15.1792 30.04 15.2722 29.015 15.4592 26.966L15.5012 26.5" stroke="#E2001A" stroke-width="2" stroke-linecap="round"/>
<path d="M14.5 22.5L15.5 20.5M15.5 20.5L16.606 18.289C16.6891 18.1231 16.8168 17.9836 16.9747 17.8862C17.1326 17.7887 17.3145 17.7371 17.5 17.7371C17.6855 17.7371 17.8674 17.7887 18.0253 17.8862C18.1832 17.9836 18.3109 18.1231 18.394 18.289L19.5 20.5M15.5 20.5H19.5M19.5 20.5L20.5 22.5M21.5 16.5H23.482V18C23.482 18.5 22.986 19.5 21.995 19.5M25.959 16.5V18.5M25.959 18.5V22.5M25.959 18.5H27.5" stroke="#E2001A" stroke-width="2" stroke-linecap="round" stroke-linejoin="round"/>
</svg>
