<svg width="34" height="34" viewBox="0 0 34 34" fill="none" xmlns="http://www.w3.org/2000/svg">
<path d="M31.789 6.96797C32.0605 6.34621 31.9466 5.61541 31.4994 5.1072L28.7344 1.95596C28.2477 1.40074 27.4595 1.20889 26.7729 1.4787C23.4085 2.80198 20.3202 2.45354 18.2998 0.522518C17.5708 -0.17415 16.4286 -0.17415 15.6995 0.522385C13.6785 2.45328 10.5902 2.80185 7.2259 1.4785C6.53959 1.20889 5.75142 1.40074 5.26519 1.9555L2.5007 5.10621C2.05279 5.61535 1.93877 6.34608 2.20997 6.96724C3.59786 10.1524 4.30164 13.5279 4.30164 17C4.30164 20.4721 3.59786 23.8475 2.2105 27.0314C1.9391 27.6519 2.05252 28.3823 2.49984 28.8927L5.26499 32.0441C5.75162 32.5991 6.53966 32.791 7.22643 32.5212C10.5908 31.198 13.6791 31.5465 15.6994 33.4773C16.4285 34.1741 17.5707 34.1741 18.2998 33.4775C20.3208 31.5466 23.409 31.1981 26.7733 32.5214C27.4595 32.791 28.2477 32.5992 28.734 32.0444L31.4998 28.8922C31.9468 28.3822 32.0602 27.6517 31.7888 27.0312C29.0008 20.6323 28.9951 13.3798 31.789 6.96797ZM27.3453 30.6067C25.5157 29.9112 23.6606 29.6276 21.9701 29.7861C20.0271 29.9682 18.3555 30.7012 16.9998 31.9653C14.1954 29.3499 10.2394 29.2436 6.65408 30.6067L4.09578 27.691C7.02602 20.8662 7.03253 13.1491 4.09578 6.30889L6.65415 3.39319C8.4837 4.08867 10.3386 4.37242 12.0293 4.21378C13.9723 4.03162 15.644 3.29863 16.9997 2.03459C18.3562 3.29963 20.0285 4.03302 21.9718 4.2147C23.6614 4.37275 25.516 4.08873 27.3453 3.39319L29.9036 6.30883C26.9733 13.1338 26.967 20.8511 29.9036 27.691L27.3453 30.6067Z" fill="white"/>
<path d="M10.3282 25.7776C9.87618 25.8012 9.42545 25.8446 8.97728 25.9078C9.10071 25.4966 9.21558 25.0828 9.32179 24.6667C9.45772 24.1337 9.13585 23.5914 8.60281 23.4554C8.0697 23.3194 7.52743 23.6412 7.39143 24.1743C7.16895 25.0454 6.90625 25.9058 6.60418 26.7526C6.32979 27.5215 7.08881 28.3352 7.85899 28.1482C8.72068 27.9389 9.58595 27.8107 10.4308 27.7671C10.9802 27.7388 11.4026 27.2705 11.3743 26.721C11.3459 26.1716 10.8787 25.749 10.3282 25.7776ZM9.19217 20.3617C9.70715 20.3617 10.1435 19.965 10.1841 19.443C10.3104 17.817 10.3104 16.1837 10.1841 14.5578C10.1414 14.0093 9.66318 13.5999 9.11361 13.6421C8.56516 13.6849 8.15517 14.1641 8.19793 14.7126C8.31612 16.2355 8.31612 17.7653 8.19793 19.2882C8.15304 19.8656 8.60885 20.3617 9.19217 20.3617ZM10.4308 6.2323C9.58569 6.1888 8.72035 6.06077 7.85893 5.85159C7.06637 5.65914 6.33975 6.50596 6.60425 7.24725C6.90634 8.09404 7.16904 8.95437 7.39149 9.82547C7.52749 10.3588 8.0701 10.6805 8.60288 10.5445C9.13592 10.4086 9.45786 9.86625 9.32192 9.33314C9.21575 8.917 9.10089 8.50313 8.97741 8.0918C9.42567 8.15498 9.87649 8.19836 10.3286 8.22183C10.877 8.25045 11.3463 7.82764 11.3745 7.27826C11.4027 6.72882 10.9803 6.26052 10.4308 6.2323ZM15.3228 7.56906C15.8987 7.37543 16.4593 7.13894 16.9998 6.86156C17.5407 7.13925 18.1016 7.37599 18.6779 7.56979C19.1995 7.74523 19.7642 7.4646 19.9396 6.94331C20.1151 6.42189 19.8346 5.85704 19.3131 5.68159C18.7659 5.49763 18.2354 5.26729 17.7274 4.99309C17.504 4.87235 17.254 4.80912 17.0001 4.80908C16.7461 4.80905 16.4962 4.87222 16.2727 4.99289C15.7649 5.26683 15.2346 5.49695 14.6877 5.68073C14.1663 5.85611 13.8857 6.42096 14.0611 6.94238C14.2365 7.46393 14.8015 7.7443 15.3228 7.56906ZM27.1257 6.16277C27.0057 6.02604 26.8506 5.92477 26.6771 5.86992C26.5037 5.81508 26.3185 5.80876 26.1418 5.85166C25.2801 6.06097 24.4148 6.1892 23.5699 6.23276C23.0205 6.26112 22.5981 6.72941 22.6265 7.27886C22.6548 7.82824 23.1222 8.25045 23.6726 8.22229C24.1246 8.19872 24.5753 8.15527 25.0234 8.09207C24.9 8.50332 24.7851 8.9171 24.679 9.33314C24.5182 9.96347 24.9953 10.5756 25.6448 10.5756C26.0893 10.5756 26.4944 10.2759 26.6093 9.82547C26.8318 8.95438 27.0945 8.09405 27.3965 7.24725C27.4562 7.08009 27.47 6.90003 27.4368 6.7257C27.4035 6.55137 27.3242 6.3891 27.2072 6.25567L27.1257 6.16277ZM24.8871 13.6413C24.3387 13.5986 23.8593 14.0085 23.8166 14.557C23.6904 16.1829 23.6904 17.8162 23.8166 19.4422C23.8592 19.9895 24.3373 20.4006 24.8871 20.3579C25.4355 20.3151 25.8455 19.8359 25.8028 19.2874C25.6847 17.7645 25.6847 16.2347 25.8028 14.7118C25.8455 14.1633 25.4355 13.6841 24.8871 13.6413ZM26.6093 24.1746C26.4734 23.6415 25.931 23.3195 25.3979 23.4556C24.8649 23.5915 24.543 24.1338 24.6789 24.6669C24.7851 25.0831 24.8999 25.4969 25.0234 25.9082C24.5752 25.845 24.1243 25.8016 23.6722 25.7782C23.1232 25.75 22.6546 26.1724 22.6264 26.7218C22.5981 27.2712 23.0206 27.7395 23.57 27.7677C26.2181 27.9039 26.4394 28.619 27.2069 27.7446C27.3241 27.6112 27.4034 27.4489 27.4367 27.2745C27.4701 27.1 27.4561 26.9199 27.3964 26.7527C27.0944 25.9059 26.8318 25.0457 26.6093 24.1746ZM18.678 26.431C18.1021 26.6246 17.5415 26.8611 17.0009 27.1384C16.4601 26.8608 15.8992 26.6241 15.3229 26.4302C14.8016 26.2548 14.2366 26.5353 14.0612 27.0566C13.8858 27.5781 14.1662 28.1429 14.6876 28.3184C15.2349 28.5023 15.7654 28.7327 16.2735 29.0069C16.4969 29.1276 16.7468 29.1908 17.0007 29.1908C17.2546 29.1908 17.5045 29.1277 17.728 29.0071C18.2358 28.7331 18.7661 28.503 19.3131 28.3192C19.8345 28.1438 20.1151 27.5789 19.9397 27.0575C19.7643 26.5361 19.1993 26.2557 18.678 26.431Z" fill="white"/>
</svg>
