<svg width="22" height="14" viewBox="0 0 22 14" fill="none" xmlns="http://www.w3.org/2000/svg">
<g clip-path="url(#clip0_147_1117)">
<path d="M21.252 3.71875C21.1608 3.77344 20.9056 3.91016 20.4863 4.12891C20.0488 4.34766 19.5339 4.61198 18.9414 4.92188C18.349 5.23177 17.7064 5.56901 17.0137 5.93359C16.321 6.29818 15.6556 6.64453 15.0176 6.97266L21.7168 12.5781V3.99219C21.7168 3.88281 21.6986 3.778 21.6621 3.67773C21.6257 3.57747 21.4889 3.59115 21.252 3.71875ZM20.1035 14L12.9941 8.03906C12.7025 8.1849 12.4655 8.30794 12.2832 8.4082C12.1009 8.50846 11.9915 8.56771 11.9551 8.58594C11.7546 8.69531 11.5723 8.76367 11.4082 8.79102C11.2441 8.81836 11.0618 8.83203 10.8613 8.83203C10.6608 8.83203 10.4785 8.81836 10.3145 8.79102C10.1504 8.76367 9.9681 8.69531 9.76758 8.58594C9.73112 8.56771 9.61719 8.50846 9.42578 8.4082C9.23438 8.30794 8.99284 8.1849 8.70117 8.03906L1.56445 14H20.1035ZM6.67773 6.97266C6.03971 6.6263 5.37435 6.27995 4.68164 5.93359C3.98893 5.56901 3.35091 5.23177 2.76758 4.92188C2.18424 4.61198 1.68294 4.34766 1.26367 4.12891C0.844401 3.91016 0.580078 3.77344 0.470703 3.71875C0.233724 3.59115 0.0970052 3.57747 0.0605469 3.67773C0.0240885 3.778 0.00585938 3.88281 0.00585938 3.99219V12.5234L6.67773 6.97266ZM0.716797 1.3125C0.86263 1.38542 1.40039 1.67708 2.33008 2.1875C3.27799 2.67969 4.28971 3.21745 5.36523 3.80078C6.44076 4.38411 7.42513 4.91276 8.31836 5.38672C9.21159 5.87891 9.69466 6.14323 9.76758 6.17969C9.93164 6.2526 10.1048 6.31185 10.2871 6.35742C10.4694 6.40299 10.6608 6.42578 10.8613 6.42578C11.0618 6.42578 11.2578 6.40299 11.4492 6.35742C11.6406 6.31185 11.8092 6.2526 11.9551 6.17969C12.028 6.14323 12.5202 5.87891 13.4316 5.38672C14.3249 4.91276 15.3092 4.38411 16.3848 3.80078C17.4603 3.21745 18.4629 2.67969 19.3926 2.1875C20.3223 1.67708 20.86 1.38542 21.0059 1.3125C21.2975 1.14844 21.5163 0.888672 21.6621 0.533203C21.8079 0.177734 21.6165 0 21.0879 0H0.662109C0.115234 0 -0.0852865 0.177734 0.0605469 0.533203C0.20638 0.888672 0.42513 1.14844 0.716797 1.3125Z" fill="#E2001A"/>
</g>
<defs>
<clipPath id="clip0_147_1117">
<rect width="21.75" height="14" fill="white" transform="matrix(1 0 0 -1 0 14)"/>
</clipPath>
</defs>
</svg>
