<svg width="15" height="15" viewBox="0 0 15 15" fill="none" xmlns="http://www.w3.org/2000/svg">
<path d="M3.31792 3.85623C4.43168 3.21344 5.74114 2.99745 7.00234 3.24848C8.26354 3.49951 9.39049 4.20045 10.1732 5.22072C10.956 6.24099 11.3412 7.51102 11.257 8.79421C11.1728 10.0774 10.6251 11.2862 9.7158 12.1955C8.8065 13.1048 7.59766 13.6526 6.31447 13.7367C5.03128 13.8209 3.76126 13.4357 2.74098 12.653C1.72071 11.8702 1.01977 10.7433 0.768741 9.48208C0.51771 8.22087 0.733708 6.91142 1.3765 5.79765" stroke="#A1A1A1" stroke-width="0.993901" stroke-linecap="round"/>
<path d="M13.9191 0.49695H14.416C14.416 0.365151 14.3637 0.23875 14.2705 0.145553C14.1773 0.0523571 14.0509 0 13.9191 0V0.49695ZM13.4221 3.80995C13.4221 3.94175 13.4745 4.06815 13.5677 4.16135C13.6609 4.25455 13.7873 4.3069 13.9191 4.3069C14.0509 4.3069 14.1773 4.25455 14.2705 4.16135C14.3637 4.06815 14.416 3.94175 14.416 3.80995H13.4221ZM10.6061 0C10.4743 0 10.3479 0.0523571 10.2547 0.145553C10.1615 0.23875 10.1091 0.365151 10.1091 0.49695C10.1091 0.62875 10.1615 0.755151 10.2547 0.848347C10.3479 0.941544 10.4743 0.993901 10.6061 0.993901V0ZM9.96334 5.15503L14.2702 0.848129L13.5679 0.145772L9.26099 4.45268L9.96334 5.15503ZM13.4221 0.49695V3.80995H14.416V0.49695H13.4221ZM10.6061 0.993901H13.9191V0H10.6061V0.993901Z" fill="#A1A1A1"/>
</svg>
