<svg width="42" height="42" viewBox="0 0 42 42" fill="none" xmlns="http://www.w3.org/2000/svg">
<path d="M23.491 24.5001H23.5M18.5 24.5001H18.509M13.268 27.8451C13.493 29.5151 14.876 30.8241 16.56 30.9011C17.976 30.9661 19.415 31.0001 21 31.0001C22.585 31.0001 24.024 30.9661 25.44 30.9001C27.124 30.8241 28.507 29.5151 28.732 27.8451C28.879 26.7551 29 25.6381 29 24.5001C29 23.3621 28.879 22.2451 28.732 21.1551C28.507 19.4851 27.124 18.1761 25.44 18.0991C23.961 18.0315 22.4806 17.9985 21 18.0001C19.415 18.0001 17.976 18.0341 16.56 18.1001C14.876 18.1761 13.493 19.4851 13.268 21.1551C13.12 22.2451 13 23.3621 13 24.5001C13 25.6381 13.121 26.7551 13.268 27.8451Z" stroke="#E2001A" stroke-width="1.5" stroke-linecap="round" stroke-linejoin="round"/>
<path d="M16.5 18V15.5C16.5 14.3065 16.9741 13.1619 17.818 12.318C18.6619 11.4741 19.8065 11 21 11C22.1935 11 23.3381 11.4741 24.182 12.318C25.0259 13.1619 25.5 14.3065 25.5 15.5V18" stroke="#E2001A" stroke-width="1.5" stroke-linecap="round" stroke-linejoin="round"/>
</svg>
