<svg width="22" height="22" viewBox="0 0 22 22" fill="none" xmlns="http://www.w3.org/2000/svg">
<path d="M12.333 12.074C11.4736 12.9334 10.5999 13.6853 9.71186 14.3298C8.82384 14.9744 8.17931 15.0961 7.77827 14.6951C7.20535 14.1222 6.65392 13.7068 6.12397 13.449C5.59402 13.1912 4.69884 13.5636 3.43842 14.5662C2.17801 15.5688 1.81277 16.4282 2.34272 17.1443C2.87267 17.8604 3.40978 18.4907 3.95405 19.0349C4.58426 19.6938 5.94493 19.6795 8.03608 18.992C10.1272 18.3045 12.3473 16.7719 14.6962 14.3943C17.0452 12.0453 18.5634 9.83245 19.2509 7.75563C19.9384 5.67881 19.9671 4.32529 19.3369 3.69508C18.7639 3.12217 18.1266 2.5779 17.4248 2.06227C16.7229 1.54665 15.8707 1.90472 14.8681 3.13649C13.8369 4.39691 13.4501 5.29925 13.708 5.84352C13.9658 6.38779 14.3811 6.94639 14.954 7.5193C15.3551 7.92034 15.2405 8.56488 14.6103 9.4529C13.9801 10.3409 13.221 11.2146 12.333 12.074Z" fill="#E2001A"/>
</svg>
