<svg width="42" height="42" viewBox="0 0 42 42" fill="none" xmlns="http://www.w3.org/2000/svg">
<path d="M19 15H23C23 14.4696 22.7893 13.9609 22.4142 13.5858C22.0391 13.2107 21.5304 13 21 13C20.4696 13 19.9609 13.2107 19.5858 13.5858C19.2107 13.9609 19 14.4696 19 15ZM17 15C17 13.9391 17.4214 12.9217 18.1716 12.1716C18.9217 11.4214 19.9391 11 21 11C22.0609 11 23.0783 11.4214 23.8284 12.1716C24.5786 12.9217 25 13.9391 25 15H30C30.2652 15 30.5196 15.1054 30.7071 15.2929C30.8946 15.4804 31 15.7348 31 16C31 16.2652 30.8946 16.5196 30.7071 16.7071C30.5196 16.8946 30.2652 17 30 17H29.118L28.232 27.34C28.1468 28.3385 27.69 29.2686 26.9519 29.9463C26.2137 30.6241 25.2481 31.0001 24.246 31H17.754C16.7519 31.0001 15.7863 30.6241 15.0481 29.9463C14.31 29.2686 13.8532 28.3385 13.768 27.34L12.882 17H12C11.7348 17 11.4804 16.8946 11.2929 16.7071C11.1054 16.5196 11 16.2652 11 16C11 15.7348 11.1054 15.4804 11.2929 15.2929C11.4804 15.1054 11.7348 15 12 15H17ZM24 21C24 20.7348 23.8946 20.4804 23.7071 20.2929C23.5196 20.1054 23.2652 20 23 20C22.7348 20 22.4804 20.1054 22.2929 20.2929C22.1054 20.4804 22 20.7348 22 21V25C22 25.2652 22.1054 25.5196 22.2929 25.7071C22.4804 25.8946 22.7348 26 23 26C23.2652 26 23.5196 25.8946 23.7071 25.7071C23.8946 25.5196 24 25.2652 24 25V21ZM19 20C19.2652 20 19.5196 20.1054 19.7071 20.2929C19.8946 20.4804 20 20.7348 20 21V25C20 25.2652 19.8946 25.5196 19.7071 25.7071C19.5196 25.8946 19.2652 26 19 26C18.7348 26 18.4804 25.8946 18.2929 25.7071C18.1054 25.5196 18 25.2652 18 25V21C18 20.7348 18.1054 20.4804 18.2929 20.2929C18.4804 20.1054 18.7348 20 19 20ZM15.76 27.17C15.8026 27.6694 16.0312 28.1346 16.4004 28.4735C16.7697 28.8124 17.2528 29.0003 17.754 29H24.246C24.7469 28.9998 25.2294 28.8117 25.5983 28.4728C25.9671 28.134 26.1954 27.6691 26.238 27.17L27.11 17H14.89L15.76 27.17Z" fill="#E2001A"/>
</svg>
