<svg width="140" height="140" viewBox="0 0 140 140" fill="none" xmlns="http://www.w3.org/2000/svg">
<rect width="140" height="140" rx="70" fill="#54114C"/>
<path d="M81.77 53.1277L82.4777 53.2304C83.5777 53.4045 84.8097 53.696 85.5668 54.4532C86.324 55.2104 86.6173 56.4442 86.7915 57.5442L86.8942 58.2501C87.1252 59.9184 87.1857 62.1055 86.7915 64.5329C86.0142 69.3234 83.464 75.0379 77.0602 79.4654C77.0321 79.7928 77.0217 80.1214 77.029 80.4499L77.0602 81.4454C77.0785 82.109 77.0675 82.7709 76.8842 83.4071C76.5358 84.6171 75.2947 85.4146 74.1342 85.9865L73.5658 86.2561L72.8325 86.5787L72.332 86.7804C71.0358 87.2754 69.472 87.6219 68.449 86.597C67.9852 86.1332 67.7707 85.5026 67.5983 84.8719L67.514 84.5566C67.2207 83.4437 66.8888 82.3382 66.4745 81.2675C66.3601 81.4066 66.239 81.54 66.1115 81.6672C65.1123 82.6646 63.7575 83.1669 62.4027 83.5555L61.5025 83.8031L60.6042 84.0414L59.7278 84.2614L58.9358 84.4447L57.988 84.6464L57.3958 84.7619C57.1005 84.8166 56.7963 84.7986 56.5095 84.7095C56.2226 84.6204 55.9618 84.4629 55.7494 84.2505C55.537 84.0381 55.3795 83.7773 55.2904 83.4904C55.2013 83.2036 55.1833 82.8994 55.238 82.6041L55.4415 81.5939L55.678 80.5342L55.9053 79.5992L56.3178 78.0501C56.7267 76.5467 57.2235 74.9975 58.3345 73.8884L58.516 73.7142L57.1172 73.2119L55.711 72.7279C54.8878 72.4565 54.0225 72.1705 53.4248 71.5729C52.3322 70.4802 52.796 68.7752 53.3405 67.4351L53.6448 66.7255L53.896 66.1737C54.4772 64.9381 55.3022 63.5154 56.6148 63.1377C57.251 62.9544 57.911 62.9434 58.5765 62.9599L59.572 62.9929C59.902 63.0014 60.2302 62.9911 60.5565 62.9617C64.9822 56.5579 70.6985 54.0077 75.489 53.2304C77.5663 52.8881 79.6826 52.8535 81.77 53.1277ZM76.0757 56.8494C72.046 57.5039 67.1492 59.6617 63.3285 65.4092C62.8647 66.1059 62.0818 66.4377 61.2843 66.5642C60.8333 66.6376 60.3787 66.6559 59.9222 66.6559L58.5527 66.6357C58.3253 66.6345 58.0974 66.6382 57.8688 66.6467C57.3115 67.3874 56.9228 68.2674 56.6313 69.1419L59.3813 70.141L60.5125 70.5682C62.5805 71.3785 64.5825 72.3594 66.1225 73.8994C68.7167 76.4935 70.0348 79.8871 70.9882 83.3539C71.8242 83.0606 72.6638 82.6865 73.3752 82.153L73.3862 81.4692L73.366 80.1015C73.366 79.6469 73.3843 79.1922 73.4577 78.7376C73.5823 77.9401 73.916 77.1572 74.6127 76.6934C80.3602 72.8727 82.518 67.9759 83.1725 63.9462C83.5025 61.9112 83.4475 60.0925 83.2623 58.7524C83.191 58.1964 83.0727 57.6475 82.9085 57.1115C82.3725 56.948 81.8236 56.8302 81.2677 56.7595C79.5418 56.5359 77.7925 56.565 76.0757 56.8494ZM60.925 76.4807C60.2833 77.2562 59.9845 78.2737 59.7443 79.282L59.5463 80.14L59.4455 80.5544L60.7178 80.2555C61.7262 80.0172 62.7455 79.7147 63.5192 79.073C63.8629 78.729 64.056 78.2626 64.0558 77.7762C64.0556 77.2899 63.8623 76.8236 63.5182 76.4798C63.1742 76.136 62.7078 75.943 62.2214 75.9432C61.7351 75.9433 61.2688 76.1367 60.925 76.4807ZM71.2962 63.5191C71.6366 63.1785 72.0408 62.9083 72.4856 62.724C72.9304 62.5396 73.4072 62.4447 73.8888 62.4446C74.3703 62.4445 74.8471 62.5393 75.292 62.7235C75.7369 62.9077 76.1412 63.1777 76.4817 63.5181C76.8223 63.8586 77.0925 64.2627 77.2768 64.7076C77.4612 65.1524 77.5561 65.6292 77.5562 66.1107C77.5563 66.5923 77.4615 67.0691 77.2773 67.514C77.0931 67.9589 76.8231 68.3632 76.4827 68.7037C75.7949 69.3915 74.8621 69.7779 73.8894 69.7779C72.9168 69.7779 71.9839 69.3915 71.2962 68.7037C70.6084 68.0159 70.222 67.0831 70.222 66.1105C70.222 65.1378 70.6084 64.205 71.2962 63.5172V63.5191Z" fill="white"/>
</svg>
