<svg width="34" height="34" viewBox="0 0 34 34" fill="none" xmlns="http://www.w3.org/2000/svg">
<g clip-path="url(#clip0_512_8768)">
<path d="M20.9773 23.2723C18.9625 22.4388 17.1388 21.2045 15.6168 19.6448C24.6005 14.7034 21.2359 1.05736 10.8914 0.937509V0.937501L10.89 0.9375C2.03657 0.935354 -2.37305 11.6905 3.85646 17.9169L2.96406 22.1801L2.96404 22.1802C2.83522 22.7976 2.93389 23.44 3.24045 23.9895C2.96244 24.5583 2.83703 25.2193 2.96408 25.7952C3.0978 26.4014 3.51027 26.9035 4.28417 27.0909L4.28415 27.091L4.28808 27.0918L19.6269 30.2898C19.627 30.2898 19.6271 30.2899 19.6271 30.2899C20.4749 30.47 21.335 29.984 21.6469 29.141C21.6469 29.1408 21.647 29.1406 21.6471 29.1404L21.8179 28.6903C22.2758 28.7244 22.7031 28.5176 23.0093 28.2014C23.3366 27.8634 23.5387 27.3876 23.4933 26.9124C23.4391 25.362 22.4337 23.8456 20.9773 23.2723ZM15.5963 21.4343C14.9768 21.6173 14.3224 21.5742 13.8133 21.1634L13.811 21.1615C12.7832 20.3716 12.0402 19.6115 11.5537 19.0481C11.0787 18.498 10.8498 18.1372 10.839 18.1201C10.8387 18.1197 10.8385 18.1194 10.8386 18.1195L10.8387 18.1194L10.8352 18.1139C10.7423 17.9694 10.5964 17.867 10.4289 17.8288C10.2613 17.7906 10.0855 17.8196 9.9391 17.9097C9.79274 17.9998 9.68755 18.1437 9.64614 18.3105C9.60472 18.4772 9.63038 18.6536 9.71761 18.8017L9.71851 18.8032C9.76492 18.8795 10.7578 20.47 13.0107 22.2021C13.4 22.5049 13.8556 22.711 14.3401 22.8031C14.8248 22.8953 15.3244 22.871 15.7978 22.7321L16.8366 22.4307C17.9637 23.2604 19.187 23.9509 20.48 24.4871L20.4813 24.4876C21.4846 24.8909 22.1434 25.9082 22.1848 27.0066C22.1859 27.0363 22.1826 27.066 22.175 27.0948L22.1748 27.0958C22.1495 27.1947 22.1034 27.272 22.0446 27.3198C21.9894 27.3647 21.9143 27.3907 21.8101 27.3755L5.10067 23.8892C5.10048 23.8892 5.10028 23.8892 5.10009 23.8891C4.85928 23.8371 4.64392 23.7033 4.49063 23.5104C4.37566 23.3614 4.29447 23.1892 4.25269 23.0057C4.21085 22.822 4.20954 22.6313 4.24885 22.4469L4.24896 22.4464L5.20859 17.849L5.20893 17.8474L5.25321 17.6481L5.25326 17.6482L5.25394 17.6447C5.30462 17.3814 5.53935 17.1982 5.77819 17.2492L5.77891 17.2494L7.54517 17.6156C8.82921 17.9186 10.0764 16.9216 10.299 15.686C10.3791 15.7034 10.4629 15.7177 10.5457 15.7315C10.5597 15.7338 10.5737 15.7361 10.5877 15.7385C10.7086 15.7585 10.8277 15.7782 10.9405 15.8049C11.2002 15.8665 11.3745 15.9546 11.4424 16.1077L11.4421 16.1079L11.4462 16.1156C12.5319 18.1647 13.891 19.9261 15.5963 21.4343ZM19.5306 10.8892V10.8906C19.5306 11.0558 19.5252 11.2261 19.5145 11.3973C17.9153 11.4684 16.269 10.6928 14.6078 9.0321C14.0462 8.47052 13.8353 8.01869 13.7828 7.6307C13.7297 7.2387 13.8345 6.89343 13.9477 6.52605L13.9478 6.52593L13.9538 6.50645C14.083 6.086 14.2494 5.5451 13.927 5.04502L13.9268 5.04481C13.6176 4.5673 13.0009 4.33417 11.901 4.19662L11.8855 4.32066L11.901 4.19662C10.7805 4.05656 9.88803 3.46033 9.23662 2.40663C14.465 1.33878 19.5932 5.51914 19.5306 10.8892ZM12.7866 5.7388C12.7512 5.91466 12.7062 6.08581 12.6602 6.26102C12.635 6.35689 12.6095 6.45398 12.5851 6.55372C12.5104 6.85854 12.449 7.17729 12.4547 7.52119C12.4663 8.21693 12.7517 8.98699 13.6778 9.95796L13.6778 9.958L13.6803 9.96052C15.5281 11.7901 17.3688 12.7311 19.3357 12.7117C18.7824 15.2754 17.0781 17.4711 14.7119 18.6399C13.9981 17.8031 13.3795 16.8889 12.8414 15.9259C12.5602 15.3328 12.1098 14.6829 11.3658 14.5613L9.78073 14.2327C9.78061 14.2326 9.78049 14.2326 9.78038 14.2326C9.28187 14.1266 8.86971 14.6262 9.01873 15.0928C9.07178 15.4288 8.94585 15.7785 8.71488 16.0259C8.48277 16.2745 8.15618 16.4084 7.81668 16.3314L7.8144 16.3309L6.04993 15.9652C5.42424 15.8209 4.77052 16.0784 4.3658 16.5563C3.65034 15.7302 3.09719 14.776 2.73597 13.7436C2.36677 12.6884 2.20518 11.5721 2.25983 10.456C3.95811 10.2261 5.03077 10.2231 5.6836 10.3036C6.01678 10.3447 6.23526 10.4069 6.37021 10.4682C6.43763 10.4989 6.48078 10.5278 6.50661 10.551C6.53213 10.5738 6.53521 10.5859 6.53465 10.5837C6.56985 10.7238 6.57583 10.8352 6.55953 10.9291C6.54346 11.0218 6.50449 11.1049 6.43849 11.1873C6.30083 11.3593 6.05374 11.5206 5.6705 11.74C5.67049 11.74 5.67048 11.74 5.67047 11.74L5.66356 11.7439C5.42083 11.8828 5.07375 12.0813 4.84363 12.3595C4.72556 12.5022 4.63401 12.6706 4.60444 12.8672C4.57477 13.0645 4.60922 13.2793 4.725 13.5113C4.83083 13.7342 5.03397 13.8908 5.27222 14.0069C5.51163 14.1235 5.80066 14.2061 6.09819 14.2732C6.31418 14.3219 6.54013 14.3636 6.7587 14.4039C6.84097 14.4191 6.92219 14.4341 7.00144 14.4492C7.29477 14.505 7.56154 14.5625 7.77398 14.6375L7.77384 14.6379L7.78397 14.6405C7.94885 14.6837 8.12404 14.661 8.27253 14.5773C8.42102 14.4937 8.53117 14.3556 8.57972 14.1922C8.62827 14.0288 8.61142 13.853 8.53272 13.7018C8.45402 13.5507 8.31963 13.436 8.15796 13.3821L8.15797 13.382L8.1551 13.3812C7.7846 13.2674 7.39233 13.1889 7.01346 13.1142C7.00014 13.1116 6.98685 13.109 6.97357 13.1064C6.70904 13.0543 6.452 13.0037 6.20962 12.9438C6.25419 12.9173 6.29939 12.8908 6.3453 12.8638C6.44419 12.8057 6.54633 12.7457 6.65231 12.6801C6.89111 12.5323 7.1324 12.3655 7.33633 12.1585C7.54129 11.9506 7.7095 11.701 7.80075 11.3885C7.89194 11.0761 7.90388 10.7088 7.80868 10.2687L7.80874 10.2687L7.8078 10.2649C7.64764 9.62129 7.08496 9.23106 6.17264 9.05533C5.29157 8.88562 4.05108 8.90747 2.43246 9.10996C2.72902 7.68205 3.38455 6.35216 4.33839 5.24646C5.3066 4.1241 6.54839 3.27189 7.94253 2.77197C8.80171 4.34467 10.1005 5.29411 11.7382 5.49869C12.2427 5.56175 12.5249 5.63651 12.678 5.69258C12.7268 5.71047 12.762 5.72625 12.7866 5.7388ZM20.4184 28.6782L20.4182 28.6789C20.329 28.9181 20.0987 29.0479 19.8957 29.0055L19.8702 29.1279L19.8957 29.0055L4.5565 25.8071C4.55632 25.8071 4.55613 25.8071 4.55595 25.807C4.36054 25.7641 4.26003 25.6286 4.22583 25.4483C4.19769 25.2999 4.21753 25.128 4.27126 24.9771C4.44751 25.062 4.63488 25.1391 4.84006 25.1779C4.84049 25.178 4.84091 25.1781 4.84133 25.1782L20.5068 28.4453L20.4184 28.6782Z" fill="white" stroke="white" stroke-width="0.25"/>
<path d="M22.2841 21.8254L22.2804 21.816C22.277 21.8075 22.2733 21.7984 22.2695 21.7889C22.2337 21.7012 22.1808 21.5712 22.2112 21.4293C22.2325 21.2552 22.3153 20.9044 22.3975 20.5684C22.4179 20.4849 22.4384 20.4021 22.4581 20.3223C22.4877 20.2024 22.5156 20.0894 22.539 19.9918C21.7893 20.3944 21.1298 20.9477 20.6024 21.6179C20.5501 21.6875 20.4844 21.7459 20.4093 21.7898C20.3337 21.834 20.2501 21.8626 20.1632 21.874C20.0764 21.8853 19.9882 21.8792 19.9038 21.8559C19.8194 21.8327 19.7405 21.7928 19.6718 21.7386L19.7492 21.6404L19.6718 21.7386C19.603 21.6844 19.5458 21.6169 19.5035 21.5403C19.4612 21.4636 19.4347 21.3793 19.4255 21.2922C19.4163 21.2052 19.4246 21.1171 19.45 21.0333C19.4751 20.9501 19.5166 20.8727 19.5719 20.8056C20.5148 19.6067 21.8013 18.7242 23.2592 18.2762C27.6674 16.7795 32.7651 20.1726 33.0311 24.8411C33.0509 25.0578 33.0622 25.2775 33.0622 25.4998C33.0622 25.4999 33.0622 25.5 33.0622 25.5001H32.9372C32.9407 27.0124 32.4797 28.4892 31.6165 29.731L22.2841 21.8254ZM22.2841 21.8254L22.2893 21.8341C22.4888 22.1695 23.0486 23.1197 23.2383 23.4422L23.2386 23.4428C23.3562 23.6403 23.5764 23.7618 23.8013 23.7657V23.7657L23.803 23.7657L26.7282 23.775C26.8387 24.1544 27.0195 24.777 27.1731 25.3057C27.2401 25.5364 27.3019 25.7493 27.3504 25.9162L25.8398 27.0458L25.8396 27.0456L25.8337 27.0507C25.8179 27.0641 25.7632 27.1045 25.6812 27.1644C25.672 27.1711 25.6626 27.178 25.653 27.1851C25.5793 27.2389 25.492 27.3028 25.4059 27.3671C25.3087 27.4397 25.2115 27.514 25.136 27.5763C25.0985 27.6072 25.0645 27.6367 25.0381 27.6623C25.025 27.6751 25.0121 27.6885 25.0011 27.7018C24.996 27.708 24.9883 27.7176 24.9809 27.7297C24.9294 27.7885 24.9009 27.855 24.8829 27.9163C24.8675 27.9685 24.858 28.0242 24.8502 28.0698C24.8486 28.0797 24.847 28.089 24.8454 28.0978L24.8435 28.1087V28.1197V29.711L22.964 31.2237C22.8618 31.1889 22.7498 31.1267 22.6258 31.0495C22.5851 31.0242 22.5428 30.997 22.4996 30.9693C22.3931 30.9009 22.2806 30.8287 22.1714 30.7705C22.0169 30.6882 21.846 30.6204 21.6714 30.6264C21.4878 30.6327 21.3199 30.7193 21.1756 30.9041L21.1695 30.912L21.1646 30.9208C21.0314 31.1629 21.0411 31.3874 21.1525 31.5828C21.2576 31.7675 21.447 31.9149 21.6502 32.0352C21.8557 32.1569 22.0911 32.2596 22.304 32.348C22.3511 32.3676 22.3968 32.3863 22.4408 32.4044C22.6002 32.4697 22.7371 32.5259 22.837 32.5782L22.841 32.5803L22.841 32.5804L22.8417 32.5806L22.8643 32.5924H22.8729C24.6464 33.26 26.7119 33.2144 28.4522 32.4649C29.7709 31.9045 30.9041 30.9815 31.7193 29.8031L31.7415 29.7711V29.77L22.2841 21.8254ZM27.6779 21.2714L27.6779 21.2715L26.8737 22.4615L24.1799 22.454L23.5551 21.3929C23.674 20.8861 23.8956 19.9482 24.02 19.4253C25.1474 19.1548 26.3276 19.2002 27.4313 19.5556L27.6872 21.2576L27.6779 21.2714ZM31.6131 24.561L31.6128 24.5612L30.0904 25.5429L28.6029 25.5205C28.4451 24.9785 28.0911 23.7604 27.938 23.2314L28.6867 22.1232L30.9647 22.4618C31.3227 23.1003 31.563 23.798 31.674 24.5214L31.6131 24.561ZM31.0413 26.4918L31.7261 26.0497C31.6787 26.6003 31.5579 27.1419 31.3671 27.6601L31.0413 26.4918ZM28.9511 20.8356L28.8602 20.2309C29.1941 20.4445 29.5071 20.6889 29.7951 20.961L28.9511 20.8356ZM25.533 30.8416L26.6991 31.6356C25.9745 31.7754 25.2312 31.7874 24.5023 31.6709L25.533 30.8416ZM28.2587 31.1098L26.156 29.6776V28.4485L28.3215 26.829L29.7792 26.8514L30.4585 29.2871C29.8757 30.0564 29.1228 30.6802 28.2587 31.1098Z" fill="white" stroke="white" stroke-width="0.25"/>
</g>
<defs>
<clipPath id="clip0_512_8768">
<rect width="34" height="34" fill="white"/>
</clipPath>
</defs>
</svg>
