<svg width="34" height="34" viewBox="0 0 34 34" fill="none" xmlns="http://www.w3.org/2000/svg">
<g clip-path="url(#clip0_512_8732)">
<path d="M25.8399 31.3892C25.7959 31.3894 25.752 31.3856 25.7088 31.3776C25.2569 31.3062 24.948 30.8823 25.0185 30.4301L25.9693 24.4386C26.0257 23.9839 26.44 23.661 26.8947 23.7173C27.3494 23.7737 27.6723 24.188 27.6159 24.6427C27.6135 24.6616 27.6106 24.6804 27.607 24.6991L26.6579 30.689C26.6271 30.8839 26.5279 31.0615 26.3779 31.1898C26.228 31.3182 26.0372 31.3888 25.8399 31.3892ZM20.8091 32.9671C18.2316 32.8861 15.6678 32.5571 13.1533 31.9849C6.05172 30.5446 4.39414 29.2471 4.22988 29.1027C4.11337 29.0025 4.027 28.8718 3.98042 28.7253C3.93383 28.5788 3.92887 28.4223 3.96607 28.2731L7.73425 13.0695C7.84422 12.6246 8.29402 12.3531 8.73893 12.463C9.18384 12.573 9.45534 13.0228 9.34537 13.4677L5.72817 28.0839C8.21007 29.1641 10.8178 29.9284 13.4901 30.3588C16.1179 31.0048 18.8168 31.3159 21.5226 31.2847L23.882 16.4194C23.954 15.9668 24.3793 15.6581 24.8319 15.73C25.2846 15.8019 25.5933 16.2272 25.5214 16.6799L23.0657 32.1507C23.0424 32.3028 22.9773 32.4454 22.8777 32.5626C22.7781 32.6798 22.6479 32.767 22.5015 32.8145C21.9474 32.9448 21.3776 32.9962 20.8091 32.9671ZM5.69163 4.09622C5.23345 4.09643 4.86183 3.72523 4.86162 3.26698C4.86154 3.11958 4.90074 2.97482 4.97518 2.8476C5.04962 2.72039 5.15661 2.6153 5.28515 2.54316L5.82773 2.23784C6.85527 1.66051 7.96991 1.25421 9.12795 1.03488C9.58068 0.964454 10.0048 1.27438 10.0752 1.72712C10.1423 2.15896 9.86302 2.56887 9.43655 2.66424C8.45609 2.851 7.51243 3.19564 6.64238 3.68471L6.09812 3.99003C5.97398 4.05971 5.83399 4.09628 5.69163 4.09622Z" fill="white"/>
<path d="M27.9443 21.5418C27.7314 21.5423 27.5265 21.4609 27.3719 21.3144L23.9937 18.1055C23.661 17.7902 23.6469 17.265 23.9622 16.9324C24.2774 16.5998 24.8026 16.5857 25.1352 16.9009L27.9808 19.6021L32.0128 16.2438L27.566 10.4912C26.7133 9.382 25.4901 8.61642 24.1198 8.33421L22.8787 8.08199C21.9058 10.5747 19.0964 11.8067 16.6037 10.8338C14.6977 10.09 13.4644 8.22899 13.5221 6.18379L12.281 5.93653C10.9101 5.66345 9.4867 5.89067 8.26894 6.577L1.93393 10.1411L4.33985 14.8069L8.01008 13.4281C8.43885 13.2666 8.91737 13.4832 9.07897 13.9119C9.24057 14.3407 9.02391 14.8192 8.59514 14.9808L8.59416 14.9812L4.23198 16.6188C4.0417 16.6902 3.83184 16.6893 3.64221 16.6162C3.45259 16.5431 3.29639 16.4029 3.20326 16.2223L0.0921733 10.1925C-0.112326 9.79533 0.0343936 9.30759 0.424039 9.08912L7.4559 5.13013C9.0201 4.24655 10.8501 3.95558 12.6112 4.31045L14.6023 4.71365C15.0514 4.80427 15.3421 5.24192 15.2514 5.69102L15.251 5.69262C14.9014 7.4163 16.0154 9.09708 17.7391 9.44669C19.4627 9.79631 21.1435 8.68235 21.4931 6.95868C21.5838 6.50957 22.0214 6.21893 22.4705 6.30962L22.4721 6.30997L24.4632 6.71317C26.2232 7.07269 27.795 8.05327 28.8918 9.47583L33.8264 15.8623C34.0996 16.2152 34.0447 16.7211 33.702 17.0072L28.4853 21.3494C28.3336 21.4758 28.1418 21.544 27.9443 21.5418Z" fill="white"/>
<path d="M22.3135 22.3364C17.0328 22.1721 11.8337 20.989 7.00194 18.852C6.5884 18.6547 6.41303 18.1595 6.61033 17.746C6.8047 17.3386 7.28909 17.1614 7.70046 17.3471C12.7915 19.5916 18.3065 20.7127 23.8698 20.634C24.328 20.6038 24.7239 20.9507 24.7542 21.4089C24.7844 21.8671 24.4375 22.263 23.9793 22.2933C23.4235 22.3181 22.866 22.3364 22.3135 22.3364ZM24.4855 18.3327C18.8341 18.1668 13.2533 17.0297 7.98754 14.971C7.56841 14.7859 7.37873 14.2961 7.56387 13.8769C7.74196 13.4738 8.2042 13.2802 8.61641 13.4362C13.6879 15.3969 19.0528 16.4913 24.4871 16.6734C24.512 16.6734 24.5385 16.685 24.5634 16.6734C25.0216 16.6734 25.393 17.0448 25.393 17.503C25.3715 17.9827 24.9652 18.3542 24.4855 18.3327Z" fill="white"/>
<path d="M3.11342 5.54471C3.56978 5.54471 3.93973 5.17476 3.93973 4.7184C3.93973 4.26204 3.56978 3.89209 3.11342 3.89209C2.65706 3.89209 2.28711 4.26204 2.28711 4.7184C2.28711 5.17476 2.65706 5.54471 3.11342 5.54471Z" fill="white"/>
</g>
<defs>
<clipPath id="clip0_512_8732">
<rect width="34" height="34" fill="white"/>
</clipPath>
</defs>
</svg>
