<svg width="20" height="24" viewBox="0 0 20 24" fill="none" xmlns="http://www.w3.org/2000/svg">
<path d="M8.45695 0.77002C8.35846 0.770413 8.26101 0.790202 8.17017 0.828256C8.07933 0.866311 7.99687 0.921886 7.9275 0.991809C7.85814 1.06173 7.80322 1.14463 7.7659 1.23578C7.72857 1.32692 7.70956 1.42453 7.70995 1.52302C7.70995 2.78152 7.27271 3.51952 6.70796 4.46302C6.39896 4.97902 5.90396 5.83327 5.69246 6.48877C5.47046 6.04177 5.34296 5.71102 5.14571 4.99477C5.10964 4.86053 5.03698 4.73896 4.93584 4.64361C4.83469 4.54827 4.70904 4.48291 4.57291 4.45482C4.43678 4.42674 4.29552 4.43704 4.1649 4.48458C4.03429 4.53211 3.91945 4.61501 3.83321 4.72402C1.01921 8.22877 0.192706 10.8568 0.251956 13.5148C0.370456 18.869 4.62596 23.249 10.002 23.249C15.378 23.249 19.7505 18.875 19.7505 13.499C19.7505 12.1183 19.431 10.325 18.7702 8.63902C18.1095 6.95302 17.1135 5.35177 15.5872 4.53577C15.4865 4.4824 15.375 4.45267 15.2611 4.44885C15.1473 4.44502 15.034 4.46719 14.93 4.51367C14.8259 4.56016 14.7339 4.62974 14.6607 4.71713C14.5876 4.80452 14.5354 4.90742 14.508 5.01802C14.361 5.62027 14.307 5.80552 14.1315 6.31552C13.9162 5.33902 13.5712 4.40302 13.008 3.50002C12.0637 1.98352 10.5067 0.77002 8.45695 0.77002ZM9.15596 2.34052C10.2427 2.55577 11.0737 3.23077 11.7352 4.29202C12.4942 5.51002 12.8805 7.13377 12.8805 8.43277C12.8806 8.57514 12.9213 8.71453 12.9978 8.83463C13.0742 8.95473 13.1833 9.05059 13.3122 9.111C13.4411 9.17142 13.5846 9.19388 13.7258 9.17578C13.867 9.15767 14.0002 9.09975 14.1097 9.00877C14.8942 8.36077 15.393 7.33327 15.6637 6.44077C16.3695 7.08502 16.9012 7.98802 17.37 9.18577C17.9557 10.682 18.2505 12.3598 18.2505 13.4983C18.2505 18.0635 14.5672 21.7483 10.002 21.7483C5.43671 21.7483 1.84721 18.0665 1.74596 13.4825C1.70021 11.4133 2.20946 9.48127 4.16621 6.76777C4.49621 7.51327 4.95371 8.23627 5.53271 8.81527C5.98496 9.26902 6.76271 8.98252 6.81296 8.34352C6.92021 6.99502 7.42421 6.18877 7.99646 5.23252C8.41346 4.53577 8.96696 3.62977 9.15596 2.34052ZM7.49471 10.6858C7.34692 10.6858 7.20059 10.715 7.06407 10.7716C6.92755 10.8282 6.80352 10.9111 6.69905 11.0156C6.59459 11.1202 6.51174 11.2443 6.45523 11.3808C6.39872 11.5174 6.36966 11.6637 6.36971 11.8115C6.36975 11.9593 6.39891 12.1056 6.45551 12.2422C6.51211 12.3787 6.59505 12.5027 6.69959 12.6072C6.80412 12.7116 6.92821 12.7945 7.06476 12.851C7.20132 12.9075 7.34767 12.9366 7.49546 12.9365C7.79392 12.9364 8.08013 12.8178 8.29111 12.6066C8.50208 12.3955 8.62055 12.1092 8.62046 11.8108C8.62036 11.5123 8.50169 11.2261 8.29058 11.0151C8.07946 10.8041 7.79317 10.6857 7.49471 10.6858ZM12.8167 10.6933C12.6253 10.7124 12.4473 10.8004 12.3157 10.9408L6.5587 17.5018C6.49301 17.5757 6.44259 17.6619 6.41033 17.7554C6.37808 17.8489 6.36463 17.9478 6.37076 18.0465C6.3769 18.1452 6.40249 18.2417 6.44607 18.3305C6.48966 18.4193 6.55036 18.4986 6.62471 18.5638C6.77454 18.6943 6.97007 18.7601 7.16835 18.7466C7.36663 18.7331 7.55145 18.6414 7.68221 18.4918L13.4452 11.9308C13.5753 11.781 13.6408 11.5858 13.6273 11.3879C13.6138 11.19 13.5224 11.0055 13.3732 10.8748C13.3004 10.8041 13.2124 10.751 13.116 10.7195C13.0195 10.6881 12.9172 10.6791 12.8167 10.6933ZM12.5047 16.4983C12.3569 16.4983 12.2106 16.5275 12.0741 16.5841C11.9376 16.6407 11.8135 16.7236 11.7091 16.8281C11.6046 16.9327 11.5217 17.0568 11.4652 17.1933C11.4087 17.3299 11.3797 17.4762 11.3797 17.624C11.3798 17.7718 11.4089 17.9181 11.4655 18.0547C11.5221 18.1912 11.6051 18.3152 11.7096 18.4197C11.8141 18.5241 11.9382 18.607 12.0748 18.6635C12.2113 18.72 12.3577 18.7491 12.5055 18.749C12.8039 18.7489 13.0901 18.6303 13.3011 18.4191C13.5121 18.208 13.6306 17.9217 13.6305 17.6233C13.6304 17.3248 13.5117 17.0386 13.3006 16.8276C13.0895 16.6166 12.8032 16.4982 12.5047 16.4983Z" fill="#283138"/>
</svg>
