<svg width="11" height="11" viewBox="0 0 11 11" fill="none" xmlns="http://www.w3.org/2000/svg">
<path d="M2.8167 3.1426C3.5799 2.70213 4.47719 2.55412 5.34142 2.72614C6.20565 2.89816 6.97789 3.37847 7.51426 4.07761C8.05063 4.77674 8.31457 5.64702 8.2569 6.52631C8.19923 7.40561 7.82389 8.23396 7.2008 8.85705C6.57771 9.48014 5.74936 9.85548 4.87006 9.91315C3.99077 9.97082 3.12049 9.70688 2.42136 9.17051C1.72222 8.63414 1.24191 7.8619 1.06989 6.99767C0.897873 6.13344 1.04588 5.23615 1.48635 4.47295" stroke="#3CC4D5" stroke-width="0.681064" stroke-linecap="round"/>
<path d="M10.0806 0.840532H10.4211C10.4211 0.750217 10.3852 0.663602 10.3214 0.599739C10.2575 0.535877 10.1709 0.5 10.0806 0.5V0.840532ZM9.74006 3.11074C9.74006 3.20106 9.77594 3.28767 9.8398 3.35154C9.90366 3.4154 9.99028 3.45128 10.0806 3.45128C10.1709 3.45128 10.2575 3.4154 10.3214 3.35154C10.3852 3.28767 10.4211 3.20106 10.4211 3.11074H9.74006ZM7.81038 0.5C7.72006 0.5 7.63345 0.535877 7.56959 0.599739C7.50572 0.663602 7.46985 0.750217 7.46985 0.840532C7.46985 0.930847 7.50572 1.01746 7.56959 1.08132C7.63345 1.14519 7.72006 1.18106 7.81038 1.18106V0.5ZM7.36996 4.03245L10.3212 1.08117L9.83995 0.599889L6.88867 3.55117L7.36996 4.03245ZM9.74006 0.840532V3.11074H10.4211V0.840532H9.74006ZM7.81038 1.18106H10.0806V0.5H7.81038V1.18106Z" fill="#3CC4D5"/>
</svg>
